<svg width="71" height="59" viewBox="0 0 71 59" fill="none" xmlns="http://www.w3.org/2000/svg">
<path fill-rule="evenodd" clip-rule="evenodd" d="M33.0783 2.32284C33.7954 2.62014 34.4082 3.12337 34.8392 3.76891C35.2703 4.41445 35.5002 5.17331 35.5 5.94954V53.0495C35.4999 53.8257 35.2696 54.5844 34.8383 55.2297C34.407 55.875 33.7941 56.378 33.077 56.675C32.3599 56.972 31.5708 57.0497 30.8096 56.8983C30.0483 56.747 29.349 56.3733 28.8001 55.8245L14.2501 41.2745H4.10005C3.05907 41.2745 2.06073 40.861 1.32465 40.1249C0.588574 39.3889 0.175049 38.3905 0.175049 37.3495V21.6495C0.175049 20.6086 0.588574 19.6102 1.32465 18.8741C2.06073 18.1381 3.05907 17.7245 4.10005 17.7245H14.2501L28.8001 3.17457C29.349 2.62533 30.0484 2.25124 30.81 2.09963C31.5715 1.94802 32.3609 2.0257 33.0783 2.32284ZM53.7788 1.74587C54.5148 1.01004 55.513 0.59668 56.5538 0.59668C57.5945 0.59668 58.5927 1.01004 59.3287 1.74587C62.9783 5.3869 65.8727 9.71305 67.8455 14.4759C69.8184 19.2387 70.831 24.3443 70.8251 29.4995C70.831 34.6548 69.8184 39.7604 67.8455 44.5232C65.8727 49.286 62.9783 53.6122 59.3287 57.2532C58.5885 57.9682 57.597 58.3638 56.5679 58.3549C55.5388 58.3459 54.5543 57.9331 53.8266 57.2054C53.0989 56.4777 52.6861 55.4932 52.6771 54.4641C52.6682 53.435 53.0638 52.4435 53.7788 51.7033C56.6995 48.7911 59.0157 45.3302 60.5939 41.5196C62.1722 37.7091 62.9814 33.624 62.9751 29.4995C62.9751 20.8253 59.4661 12.9831 53.7788 7.29582C53.0429 6.55977 52.6296 5.56161 52.6296 4.52084C52.6296 3.48007 53.0429 2.48191 53.7788 1.74587ZM42.6749 12.8458C43.0395 12.4808 43.4724 12.1913 43.9488 11.9938C44.4253 11.7963 44.9361 11.6946 45.4519 11.6946C45.9677 11.6946 46.4784 11.7963 46.9549 11.9938C47.4314 12.1913 47.8643 12.4808 48.2288 12.8458C50.4185 15.0307 52.155 17.6267 53.3384 20.4846C54.5219 23.3426 55.1291 26.4062 55.1251 29.4995C55.1288 32.5928 54.5216 35.6564 53.3381 38.5143C52.1547 41.3723 50.4183 43.9683 48.2288 46.1533C47.4923 46.8898 46.4934 47.3036 45.4519 47.3036C44.4103 47.3036 43.4114 46.8898 42.6749 46.1533C41.9385 45.4168 41.5247 44.4179 41.5247 43.3764C41.5247 42.3348 41.9385 41.3359 42.6749 40.5994C44.1357 39.144 45.2942 37.4139 46.0837 35.509C46.8731 33.604 47.278 31.5616 47.2751 29.4995C47.2783 27.4374 46.8735 25.395 46.084 23.49C45.2945 21.585 44.1359 19.855 42.6749 18.3996C42.31 18.0351 42.0205 17.6022 41.823 17.1257C41.6255 16.6493 41.5238 16.1385 41.5238 15.6227C41.5238 15.1069 41.6255 14.5962 41.823 14.1197C42.0205 13.6432 42.31 13.2103 42.6749 12.8458Z" fill="white"/>
</svg>
