<svg width="60" height="60" viewBox="0 0 60 60" fill="none" xmlns="http://www.w3.org/2000/svg">
<g clip-path="url(#clip0_628_3574)">
<path d="M58.1307 49.8512H54.5911V26.4408C54.5911 25.4713 53.8039 24.6854 52.8328 24.6854H43.1242C42.1531 24.6854 41.3659 25.4713 41.3659 26.4408V49.8512H36.5573V19.4859C36.5573 18.5164 35.77 17.7305 34.7989 17.7305H25.0903C24.1192 17.7305 23.332 18.5164 23.332 19.4859V49.8512H18.5234V24.5831C18.5234 23.6136 17.7361 22.8276 16.765 22.8276H7.05636C6.08525 22.8276 5.298 23.6136 5.298 24.5831V49.8512H1.75848C0.787373 49.8512 0.00012207 50.6371 0.00012207 51.6066C0.00012207 52.5761 0.787373 53.362 1.75848 53.362H58.1307C59.1018 53.362 59.889 52.5761 59.889 51.6066C59.889 50.6371 59.1018 49.8512 58.1307 49.8512V49.8512ZM8.81471 49.8512V26.3385H15.0067V49.8512H8.81471ZM26.8486 49.8512V21.2413H33.0406V49.8512H26.8486ZM44.8826 49.8512V28.1962H51.0745V49.8512H44.8826Z" fill="#D1D5DB"/>
<path d="M58.6033 13.2071C58.6616 12.4735 58.234 11.5726 57.2548 11.3447L51.583 9.96615C50.6406 9.73643 49.6916 10.3151 49.4627 11.2572C49.2337 12.1993 49.8117 13.1486 50.7538 13.3775L52.358 13.7675L47.8105 16.5737L30.568 6.75735C30.0722 6.47496 29.4698 6.4512 28.9537 6.6938L11.8144 14.7386L3.6211 9.62525C2.79874 9.11161 1.71588 9.36252 1.20247 10.185C0.689187 11.0074 0.939862 12.0902 1.76234 12.6036L10.766 18.2228C11.2713 18.5381 11.902 18.5758 12.4413 18.3227L29.6217 10.2585L46.9782 20.1398C47.4298 20.3767 48.0593 20.4994 48.7686 20.1081L54.2812 16.7062L53.9141 18.4256C53.5101 20.7126 56.7477 21.3622 57.3475 19.1589L58.5644 13.4603C58.5782 13.3805 58.5833 13.3917 58.6033 13.2071V13.2071Z" fill="#059669"/>
</g>
<defs>
<clipPath id="clip0_628_3574">
<rect width="59.8889" height="59.8889" fill="white"/>
</clipPath>
</defs>
</svg>
