<svg width="60" height="60" viewBox="0 0 60 60" fill="none" xmlns="http://www.w3.org/2000/svg">
<g clip-path="url(#clip0_628_3566)">
<path d="M24.6806 16.3935V23.6524L25.1946 24.1664C25.3588 24.3305 29.3055 28.1892 36.9625 28.1892C44.6195 28.1892 48.5662 24.3305 48.7304 24.1663L49.2444 23.6523V16.3934L52.7535 14.9897V24.6801H56.2626V13.5861L59.2324 12.3982L36.9625 3.49023L14.6926 12.3982L24.6806 16.3935ZM45.7353 22.1078C44.6183 22.942 41.7196 24.6801 36.9625 24.6801C32.2054 24.6801 29.3067 22.942 28.1897 22.1078V17.797L36.9625 21.3061L45.7353 17.797V22.1078ZM49.7838 12.3982L36.9625 17.5267L24.1413 12.3982L36.9625 7.26978L49.7838 12.3982Z" fill="#D1D5DB"/>
<path d="M13.5227 15.2772L11.0414 12.7959L8.79649 15.0408C9.18577 8.61651 14.5346 3.50911 21.0549 3.50911V0C12.5856 0 5.65326 6.70206 5.28059 15.081L2.99534 12.7959L0.51416 15.2772L7.01842 21.7814L13.5227 15.2772Z" fill="#059669"/>
<path d="M59.3751 41.1019L52.8708 34.5977L46.3665 41.1019L48.8478 43.5832L51.1162 41.3148V44.0972C51.1162 50.8694 45.6066 56.3791 38.8344 56.3791V59.8882C47.5415 59.8882 54.6254 52.8043 54.6254 44.0972V41.3148L56.8939 43.5833L59.3751 41.1019Z" fill="#059669"/>
<path d="M42.2263 49.2446V38.1505L45.196 36.9627L22.9261 28.0547L0.65625 36.9627L10.6442 40.9579V48.2169L11.1582 48.7309C11.3224 48.895 15.2691 52.7537 22.9261 52.7537C30.5831 52.7537 34.5298 48.895 34.6941 48.7307L35.208 48.2168V40.9578L38.7172 39.5542V49.2446H42.2263ZM31.6989 46.6723C30.582 47.5064 27.6832 49.2446 22.9261 49.2446C18.1691 49.2446 15.2703 47.5064 14.1534 46.6723V42.3615L22.9261 45.8706L31.6989 42.3615V46.6723ZM22.9261 42.0911L10.1049 36.9627L22.9261 31.8342L35.7474 36.9627L22.9261 42.0911Z" fill="#D1D5DB"/>
</g>
<defs>
<clipPath id="clip0_628_3566">
<rect width="59.8889" height="59.8889" fill="white"/>
</clipPath>
</defs>
</svg>
