<svg width="60" height="60" viewBox="0 0 60 60" fill="none" xmlns="http://www.w3.org/2000/svg">
<g clip-path="url(#clip0_628_3580)">
<path d="M40.0369 22.8525H55.5916C56.2683 22.8525 56.9193 22.5665 57.3776 22.0678C57.8363 21.5685 58.0666 20.8951 58.0093 20.2199C57.7931 17.6673 56.6377 15.3013 54.7557 13.5573C54.1882 13.0316 53.5697 12.5766 52.912 12.197C54.1816 10.902 54.9659 9.12697 54.9659 7.17169C54.9659 3.21727 51.7577 0 47.8142 0C43.8707 0 40.6624 3.21727 40.6624 7.17181C40.6624 9.12709 41.4467 10.9021 42.7164 12.1971C42.0589 12.5767 41.4403 13.0317 40.8729 13.5575C38.9908 15.3013 37.8354 17.6675 37.6193 20.22C37.5621 20.8951 37.7923 21.5688 38.251 22.0679C38.7092 22.5665 39.3602 22.8525 40.0369 22.8525ZM44.1715 7.17181C44.1715 5.1522 45.8056 3.50911 47.8142 3.50911C49.8227 3.50911 51.4568 5.1522 51.4568 7.17181C51.4568 9.19154 49.8227 10.8345 47.8142 10.8345C45.8056 10.8345 44.1715 9.19142 44.1715 7.17181ZM43.2579 16.1314C44.5021 14.9785 46.1203 14.3436 47.8142 14.3436C49.5082 14.3436 51.1263 14.9785 52.3705 16.1314C53.3152 17.0067 53.9819 18.1198 54.3083 19.3434H41.3201C41.6466 18.1198 42.3132 17.0068 43.2579 16.1314Z" fill="#D1D5DB"/>
<path d="M11.072 22.8525H26.6266C27.3033 22.8525 27.9544 22.5665 28.4127 22.0678C28.8713 21.5685 29.1016 20.8951 29.0443 20.2199C28.8281 17.6673 27.6727 15.3013 25.7908 13.5573C25.2233 13.0316 24.6047 12.5766 23.9472 12.197C25.2169 10.9019 26.0012 9.12697 26.0012 7.17169C26.0012 3.21727 22.7929 0 18.8494 0C14.9058 0 11.6976 3.21727 11.6976 7.17181C11.6976 9.12709 12.4819 10.9021 13.7516 12.1971C13.0941 12.5767 12.4754 13.0317 11.908 13.5575C10.0259 15.3014 8.87052 17.6675 8.65447 20.22C8.59727 20.8951 8.82747 21.5687 9.28611 22.0679C9.7444 22.5665 10.3953 22.8525 11.072 22.8525ZM15.2067 7.17181C15.2067 5.1522 16.8408 3.50911 18.8494 3.50911C20.858 3.50911 22.4921 5.1522 22.4921 7.17181C22.4921 9.19154 20.858 10.8345 18.8494 10.8345C16.8408 10.8345 15.2067 9.19142 15.2067 7.17181ZM14.2931 16.1314C15.5374 14.9785 17.1554 14.3436 18.8494 14.3436C20.5433 14.3436 22.1614 14.9785 23.4056 16.1314C24.3504 17.0067 25.017 18.1198 25.3435 19.3434H12.3552C12.6816 18.1198 13.3483 17.0068 14.2931 16.1314Z" fill="#D1D5DB"/>
<path d="M54.7557 42.7605C54.1882 42.2347 53.5696 41.7797 52.912 41.4001C54.1816 40.1051 54.9659 38.3301 54.9659 36.3749C54.9659 32.4203 51.7577 29.2031 47.8142 29.2031C43.8707 29.2031 40.6624 32.4204 40.6624 36.3749C40.6624 38.3301 41.4467 40.1051 42.7164 41.4001C42.0589 41.7797 41.4403 42.2347 40.8728 42.7605C38.9908 44.5043 37.8354 46.8705 37.6193 49.423C37.5621 50.0983 37.7923 50.7719 38.251 51.271C38.7092 51.7698 39.3601 52.0558 40.0369 52.0558H55.5916C56.2683 52.0558 56.9192 51.7698 57.3776 51.271C57.8363 50.7719 58.0666 50.0984 58.0093 49.423C57.7932 46.8703 56.6378 44.5044 54.7557 42.7605ZM44.1716 36.3749C44.1716 34.3552 45.8057 32.7122 47.8143 32.7122C49.8228 32.7122 51.4569 34.3553 51.4569 36.3749C51.4569 38.3945 49.8228 40.0376 47.8143 40.0376C45.8057 40.0375 44.1716 38.3944 44.1716 36.3749ZM41.3203 48.5465C41.6467 47.3229 42.3133 46.2097 43.258 45.3344C44.5022 44.1815 46.1204 43.5466 47.8143 43.5466C49.5083 43.5466 51.1264 44.1815 52.3706 45.3344C53.3153 46.2097 53.982 47.3229 54.3084 48.5465H41.3203Z" fill="#D1D5DB"/>
<path d="M18.849 26.373C10.3487 26.373 3.43329 33.2892 3.43329 41.7902C3.43329 45.6947 4.89215 49.2649 7.29344 51.9842L2.38559 56.8926C1.70049 57.5779 1.70061 58.6888 2.38571 59.3741C2.72831 59.7164 3.17725 59.8877 3.6263 59.8877C4.07535 59.8877 4.52451 59.7163 4.867 59.3737L9.90188 54.3382C12.4263 56.1437 15.5158 57.2072 18.849 57.2072C27.3492 57.2072 34.2646 50.2911 34.2646 41.79C34.2646 33.2889 27.3492 26.373 18.849 26.373ZM18.849 53.6982C12.2836 53.6982 6.94241 48.3563 6.94241 41.7901C6.94241 35.224 12.2836 29.882 18.849 29.882C25.4143 29.882 30.7555 35.224 30.7555 41.7901C30.7555 48.3563 25.4143 53.6982 18.849 53.6982Z" fill="#059669"/>
<path d="M23.7427 37.0433L16.7561 44.0306L13.954 41.2283C13.2688 40.5432 12.158 40.5433 11.4726 41.2281C10.7875 41.9132 10.7874 43.0242 11.4725 43.7095L15.5154 47.7528C15.8581 48.0954 16.3071 48.2667 16.7561 48.2667C17.205 48.2667 17.6542 48.0954 17.9966 47.7529L17.9968 47.7528L26.2241 39.5245C26.9092 38.8392 26.9091 37.7283 26.224 37.043C25.5387 36.358 24.4278 36.3581 23.7427 37.0433Z" fill="#059669"/>
</g>
<defs>
<clipPath id="clip0_628_3580">
<rect width="59.8889" height="59.8889" fill="white"/>
</clipPath>
</defs>
</svg>
