<svg width="200" height="437" viewBox="0 0 200 437" fill="none" xmlns="http://www.w3.org/2000/svg">
<path fill-rule="evenodd" clip-rule="evenodd" d="M64.2488 277.542L64.9537 360.233H61.8316L62.2994 301.57L58.9963 299.004L59.202 298.2L62.2994 299.31L62.6109 277.341L55.3564 276.45L44.4785 264.835L46.7743 224.883L70.912 216.564L89.6225 234.229L83.7525 271.408L69.1305 278.141L64.2488 277.542Z" fill="#34798B"/>
<path d="M-2.35123 322.402H200.103L200.103 -0.0730286H-2.35123L-2.35123 322.402Z" fill="url(#paint0_linear_618_553)"/>
<path d="M200.102 287.764H-2.35156V438.291H200.102V287.764Z" fill="url(#paint1_linear_618_553)"/>
<path d="M200.102 -5.1123H-2.35156V186.357H200.102V-5.1123Z" fill="url(#paint2_linear_618_553)" fill-opacity="0.3"/>
<path fill-rule="evenodd" clip-rule="evenodd" d="M124.28 369.198L123.441 405.64L121.128 404.129L120.847 405.093L123.441 408.804L122.707 435.916H128.426L126.204 369.173L144.754 362.264L140.312 320.165L119.846 311.964L110.318 322.83L110.921 329.391L107.362 358.757L122.235 369.198H124.28Z" fill="url(#paint3_linear_618_553)"/>
<path fill-rule="evenodd" clip-rule="evenodd" d="M141.944 324.721L138.568 324.898L123.875 313.664L118.437 266.964L144.173 252.44L168.978 269.086L169.8 313.302L154.55 324.061L145.113 324.555L145.114 326.032L151.518 324.881L151.586 325.829L145.099 327.476L146.369 435.992H140.156L140.82 383.525L133.689 382.166L134.008 381.504L140.82 382.166L141.944 324.721Z" fill="url(#paint4_linear_618_553)"/>
<path opacity="0.5" fill-rule="evenodd" clip-rule="evenodd" d="M144.106 252.417L123.861 313.664L118.441 266.936L144.106 252.417Z" fill="url(#paint5_linear_618_553)"/>
<path opacity="0.8" fill-rule="evenodd" clip-rule="evenodd" d="M71.3384 436.818H68.2163L68.6842 378.155L65.3811 375.589L65.5868 374.785L68.6842 375.895L68.9956 353.925L61.7412 353.035L50.8633 341.42L53.159 301.467L77.2967 293.149L96.0073 310.813L90.1373 347.993L75.5152 354.726L70.6336 354.127L71.3384 436.818Z" fill="url(#paint6_linear_618_553)"/>
<path fill-rule="evenodd" clip-rule="evenodd" d="M81.4783 163.886L79.7544 436.81H87.2385L86.8025 363.03L88.4899 359.362L87.9791 357.382L86.8025 358.092L86.1171 247.046L94.0349 238.746L93.5419 236.146L86.1171 239.736L85.3281 164.634L85.7181 164.71L103.406 155.263L115.576 100.365L96.8072 73.499L57.1855 92.4211L59.5236 144.088L70.2376 161.701L81.4783 163.886Z" fill="url(#paint7_linear_618_553)"/>
<path fill-rule="evenodd" clip-rule="evenodd" d="M37.5254 438.261L59.3634 418.303L88.3678 427.795L95.2915 423.661L116.991 433.75L136.965 427.429L160.186 438.297L37.5254 438.261Z" fill="#019B83"/>
<path fill-rule="evenodd" clip-rule="evenodd" d="M59.3047 418.404L70.5157 424.898L75.2845 431.391L88.8572 427.702L59.3047 418.404Z" fill="#03AB92"/>
<path d="M-2.35123 146.933L200.103 146.933L200.103 -0.0735779L-2.35123 -0.0735779L-2.35123 146.933Z" fill="url(#paint8_linear_618_553)"/>
<path fill-rule="evenodd" clip-rule="evenodd" d="M95.2871 423.628L91.4248 430.755L97.6394 428.378L108.516 429.804L95.2871 423.628Z" fill="#03AB92"/>
<path fill-rule="evenodd" clip-rule="evenodd" d="M42.8244 271.297L40.7499 436.81H54.3971L51.8825 306.701L61.5186 303.592V302.097L51.8825 302.985L51.237 272.769L55.698 273.55L81.2142 260.767L83.1178 228.814L68.8918 194.274L40.371 195.401L18.4053 231.639L30.027 269.057L42.8244 271.297Z" fill="url(#paint9_linear_618_553)"/>
<path opacity="0.0133512" fill-rule="evenodd" clip-rule="evenodd" d="M40.4912 195.475L83.2894 228.885L68.7388 194.376L40.4912 195.475Z" fill="white"/>
<path fill-rule="evenodd" clip-rule="evenodd" d="M136.969 427.371L137.698 431.842L141.318 434.485L160.131 438.307L136.969 427.371Z" fill="#03AB92"/>
<path opacity="0.03" fill-rule="evenodd" clip-rule="evenodd" d="M88.1017 144.077L103.364 155.287L115.542 100.593L102.042 80.9814L78.5273 118.536L88.1017 144.077Z" fill="black"/>
<path fill-rule="evenodd" clip-rule="evenodd" d="M155.404 214.925L156.647 436.81H147.352L150.276 239.912C150.276 239.912 143.032 237.072 140.216 235.992C139.679 235.786 140.216 235.032 140.216 235.032L150.41 237.283L150.678 215.106L135.755 215.678L119.45 177.285L128.058 133.296L175.015 118.186L193.62 174.144L168.444 214.426L155.404 214.925Z" fill="url(#paint10_linear_618_553)"/>
<path opacity="0.02" fill-rule="evenodd" clip-rule="evenodd" d="M136.064 215.638L156.099 197.355L178.122 199.073L168.495 214.476L136.064 215.638Z" fill="black"/>
<path opacity="0.7" fill-rule="evenodd" clip-rule="evenodd" d="M119.589 177.465L175.179 118.282L128.177 133.268L119.589 177.465Z" fill="#22355E"/>
<path opacity="0.1" fill-rule="evenodd" clip-rule="evenodd" d="M64.0293 13.7012C65.8418 14.7562 67.0601 16.7201 67.0601 18.9684C67.0601 22.332 64.3334 25.0588 60.9698 25.0588C59.5271 25.0588 58.2017 24.5572 57.1582 23.7189C58.0572 24.2422 59.1025 24.542 60.2177 24.542C63.5813 24.542 66.3081 21.8153 66.3081 18.4516C66.3081 16.5307 65.4187 14.8174 64.0293 13.7012Z" fill="white"/>
<path d="M115.951 76.585H115.645V76.8917H115.951V76.585Z" fill="white" fill-opacity="0.1"/>
<path d="M191.923 39.5713H191.104V40.3893H191.923V39.5713Z" fill="white" fill-opacity="0.11"/>
<path d="M163.19 13.0879H162.372V13.9059H163.19V13.0879Z" fill="white" fill-opacity="0.1"/>
<path d="M28.2213 7.97559H27.4033V8.79358H28.2213V7.97559Z" fill="white" fill-opacity="0.19"/>
<path d="M94.478 25.3584H93.6602V26.1764H94.478V25.3584Z" fill="white" fill-opacity="0.18"/>
<path d="M60.8385 62.9863H60.0205V63.8043H60.8385V62.9863Z" fill="white" fill-opacity="0.1"/>
<path d="M107.362 53.8857H106.544V54.7037H107.362V53.8857Z" fill="white" fill-opacity="0.1"/>
<path d="M79.9586 1.33008H79.1406V2.14807H79.9586V1.33008Z" fill="white" fill-opacity="0.1"/>
<path d="M126.482 2.14746H125.664V2.96546H126.482V2.14746Z" fill="white" fill-opacity="0.1"/>
<path d="M18.8141 3.98828H17.9961V4.80628H18.8141V3.98828Z" fill="white" fill-opacity="0.1"/>
<path d="M140.695 44.7852H139.877V45.6032H140.695V44.7852Z" fill="white" fill-opacity="0.1"/>
<path d="M25.1529 42.5361H24.335V43.3541H25.1529V42.5361Z" fill="white" fill-opacity="0.1"/>
<path d="M71.8813 31.5957H71.3701V32.107H71.8813V31.5957Z" fill="white" fill-opacity="0.1"/>
<path d="M119.427 21.166H118.916V21.6772H119.427V21.166Z" fill="white" fill-opacity="0.1"/>
<path d="M148.16 21.6768H147.648V22.188H148.16V21.6768Z" fill="white" fill-opacity="0.1"/>
<path d="M186.298 35.583H185.787V36.0943H186.298V35.583Z" fill="white" fill-opacity="0.1"/>
<path d="M178.221 66.4629H177.71V66.9742H178.221V66.4629Z" fill="white" fill-opacity="0.1"/>
<path d="M40.1841 24.0293H39.6729V24.5406H40.1841V24.0293Z" fill="white" fill-opacity="0.1"/>
<path d="M193.661 0.818359H193.149V1.32961H193.661V0.818359Z" fill="white" fill-opacity="0.1"/>
<path d="M17.9956 8.79395H17.4844V9.3052H17.9956V8.79395Z" fill="white" fill-opacity="0.24"/>
<path d="M11.8609 36.708H11.3496V37.2193H11.8609V36.708Z" fill="white" fill-opacity="0.1"/>
<path d="M71.3703 36.4014H71.0635V36.7081H71.3703V36.4014Z" fill="white" fill-opacity="0.1"/>
<path d="M28.2208 66.1553H27.9141V66.462H28.2208V66.1553Z" fill="white" fill-opacity="0.1"/>
<path d="M30.7775 62.6797H30.4707V62.9865H30.7775V62.6797Z" fill="white" fill-opacity="0.1"/>
<path d="M126.073 17.1787H125.767V17.4855H126.073V17.1787Z" fill="white" fill-opacity="0.1"/>
<path d="M129.653 25.0518H129.346V25.3585H129.653V25.0518Z" fill="white" fill-opacity="0.37"/>
<path d="M97.1369 36.0947H96.8301V36.4015H97.1369V36.0947Z" fill="white" fill-opacity="0.1"/>
<path d="M62.0655 17.6895H61.7588V17.9962H62.0655V17.6895Z" fill="white" fill-opacity="0.1"/>
<path d="M63.9054 66.3604H63.5986V66.6671H63.9054V66.3604Z" fill="white" fill-opacity="0.1"/>
<path d="M157.771 59.9189H157.464V60.2257H157.771V59.9189Z" fill="white" fill-opacity="0.1"/>
<path d="M139.877 50.3066H139.57V50.6135H139.877V50.3066Z" fill="white" fill-opacity="0.1"/>
<path d="M157.771 4.80566H157.464V5.11241H157.771V4.80566Z" fill="white" fill-opacity="0.1"/>
<path d="M103.886 13.7021H103.579V14.0089H103.886V13.7021Z" fill="white" fill-opacity="0.1"/>
<path opacity="0.02" fill-rule="evenodd" clip-rule="evenodd" d="M55.6072 273.571L81.143 260.799L23.2109 247.137L30.0569 269.107L55.6072 273.571Z" fill="black"/>
<defs>
<linearGradient id="paint0_linear_618_553" x1="98.8756" y1="280.919" x2="98.8756" y2="-0.0730453" gradientUnits="userSpaceOnUse">
<stop stop-color="#1E375C"/>
<stop offset="1" stop-color="#26234B"/>
</linearGradient>
<linearGradient id="paint1_linear_618_553" x1="98.8754" y1="287.764" x2="98.8754" y2="438.291" gradientUnits="userSpaceOnUse">
<stop stop-color="#1E375C"/>
<stop offset="1" stop-color="#00AB8E"/>
</linearGradient>
<linearGradient id="paint2_linear_618_553" x1="98.8754" y1="-1.14752" x2="98.8754" y2="186.357" gradientUnits="userSpaceOnUse">
<stop stop-color="#4A90E2" stop-opacity="0"/>
<stop offset="0.361049" stop-color="#4A90E2" stop-opacity="0.748273"/>
<stop offset="0.518734" stop-color="#4A90E2" stop-opacity="0.898183"/>
<stop offset="0.673669" stop-color="#4A90E2" stop-opacity="0.74"/>
<stop offset="1" stop-color="#4990E2" stop-opacity="0"/>
</linearGradient>
<linearGradient id="paint3_linear_618_553" x1="126.058" y1="313.603" x2="126.058" y2="435.916" gradientUnits="userSpaceOnUse">
<stop stop-color="#1A4A64"/>
<stop offset="1" stop-color="#039E86"/>
</linearGradient>
<linearGradient id="paint4_linear_618_553" x1="144.118" y1="253.546" x2="161.144" y2="434.389" gradientUnits="userSpaceOnUse">
<stop stop-color="#172F58"/>
<stop offset="0.484953" stop-color="#154F61"/>
<stop offset="1" stop-color="#039882"/>
</linearGradient>
<linearGradient id="paint5_linear_618_553" x1="143.536" y1="314.945" x2="112.882" y2="287.454" gradientUnits="userSpaceOnUse">
<stop stop-color="#194C68"/>
<stop offset="1" stop-color="#193A57"/>
</linearGradient>
<linearGradient id="paint6_linear_618_553" x1="73.4353" y1="295.05" x2="73.4353" y2="422.019" gradientUnits="userSpaceOnUse">
<stop stop-color="#1A4964"/>
<stop offset="1" stop-color="#00A48E"/>
</linearGradient>
<linearGradient id="paint7_linear_618_553" x1="86.3808" y1="73.499" x2="86.3808" y2="429.008" gradientUnits="userSpaceOnUse">
<stop stop-color="#323E76"/>
<stop offset="0.340003" stop-color="#1F3054"/>
<stop offset="0.595391" stop-color="#1D365A"/>
<stop offset="1" stop-color="#059987"/>
</linearGradient>
<linearGradient id="paint8_linear_618_553" x1="98.8757" y1="143.036" x2="98.8757" y2="-0.0735717" gradientUnits="userSpaceOnUse">
<stop stop-color="#223056" stop-opacity="0"/>
<stop offset="1" stop-color="#5A3D5F"/>
</linearGradient>
<linearGradient id="paint9_linear_618_553" x1="50.7615" y1="196.44" x2="50.7615" y2="436.81" gradientUnits="userSpaceOnUse">
<stop stop-color="#1B2A4C"/>
<stop offset="0.509945" stop-color="#174A62"/>
<stop offset="1" stop-color="#068A7C"/>
</linearGradient>
<linearGradient id="paint10_linear_618_553" x1="156.535" y1="118.186" x2="156.535" y2="436.81" gradientUnits="userSpaceOnUse">
<stop stop-color="#273B65"/>
<stop offset="0.156967" stop-color="#1E2E54"/>
<stop offset="0.507135" stop-color="#1A4A5D"/>
<stop offset="0.783243" stop-color="#0F6E71"/>
<stop offset="1" stop-color="#058E7E"/>
</linearGradient>
</defs>
</svg>
