<svg width="50" height="19" viewBox="0 0 50 19" fill="none" xmlns="http://www.w3.org/2000/svg">
<g clip-path="url(#clip0_628_3458)">
<path d="M29.5215 0.15229C28.178 0.485736 27.5108 1.24215 27.5042 2.43937C27.4966 3.83346 28.2274 4.47361 30.5711 5.12641C31.7102 5.44349 32.0973 5.99308 31.5585 6.52693C30.9469 7.13247 29.7502 6.73976 29.5995 5.88345C29.5248 5.45613 29.5285 5.45737 28.2734 5.53198L27.161 5.59788L27.2146 5.97215C27.297 6.5491 27.7425 7.43981 28.1223 7.78714C29.2477 8.81587 32.3468 8.71038 33.4077 7.60643L33.7181 7.28355L33.7776 7.65886C33.9958 9.03969 35.3083 10.337 36.8183 10.6646L37.3032 10.7701L37.0167 11.1711C36.0714 12.4941 36.0446 15.1998 36.9632 16.6051C38.369 18.7552 42.325 18.6928 43.6267 16.5002L43.8689 16.0922V18.0384H50V15.9459H46.3384V9.84978H43.8689L43.8641 10.7823C43.8598 11.5442 43.8406 11.6824 43.7578 11.5371C43.2886 10.7148 42.3749 10.0315 41.4792 9.83403L40.9964 9.7273L41.4863 9.33396C43.0105 8.11002 43.9597 5.87703 43.7159 4.08939C43.0749 -0.60848 36.7415 -0.68122 34.3292 3.98101C34.1737 4.28109 34.0412 4.53641 34.0346 4.54822C34.028 4.56003 33.811 4.3501 33.5518 4.08256C33.0146 3.52654 32.583 3.32303 31.1161 2.93487C29.7512 2.57345 29.4719 2.32 29.9306 1.85889C30.367 1.42059 31.3172 1.7045 31.5312 2.33741C31.6566 2.70815 31.6338 2.70463 33.0848 2.60205L33.9238 2.54257L33.8703 2.18529C33.6226 0.530085 31.6729 -0.381554 29.521 0.152912L29.5215 0.15229ZM3.42189 4.29933V8.39331H5.89139V5.11771H6.14238C6.53844 5.11771 6.77798 5.42898 7.5416 6.93746L8.25576 8.3473L9.62881 8.37238C10.3839 8.38626 11.0013 8.373 11.0013 8.34316C11.0013 7.88205 9.46239 5.22133 9.03529 4.94404L8.80118 4.79193L9.27367 4.52791C11.0253 3.54809 10.6936 0.741053 8.77403 0.301087C8.53177 0.245755 7.30497 0.204307 5.88713 0.204307H3.42189V4.29829V4.29933ZM40.8108 0.918034C44.6648 1.99277 44.312 7.77015 40.263 9.87941C36.1379 12.0285 32.4616 8.50045 34.4223 4.27467C35.5663 1.80916 38.4924 0.271659 40.8102 0.918656L40.8108 0.918034ZM7.593 2.05059C8.46039 2.51915 7.88491 3.38416 6.65637 3.45877L5.89159 3.5054V1.9335L6.63678 1.93474C7.0633 1.93536 7.47197 1.98489 7.593 2.05017V2.05059ZM39.4476 2.77447C38.7695 2.96679 38.08 3.69896 38.0794 4.227C38.0783 5.08973 38.7238 5.4008 39.7393 5.02735C40.3606 4.79898 40.5189 4.79898 40.6339 5.02797C40.8286 5.41737 40.1903 5.81424 39.8179 5.53509C39.6307 5.3952 38.9406 5.83641 38.9336 6.10043C38.9228 6.49791 39.8643 6.64837 40.4409 6.34124C42.2723 5.36619 41.7523 3.27308 39.8528 3.97313C39.0935 4.25291 38.9303 4.26513 38.9303 4.04007C38.9303 3.68694 39.4469 3.43162 39.6722 3.67222C39.7644 3.77066 40.4626 3.27599 40.4626 3.11206C40.4626 2.86731 39.8441 2.6609 39.4469 2.77406L39.4476 2.77447ZM36.6988 4.73763C36.2925 5.05181 36.2733 4.97016 37.0185 6.10043C37.4772 6.79571 37.6535 7.13911 37.636 7.30179C37.6056 7.5799 37.3137 7.65389 37.1085 7.43525C36.9781 7.29599 36.9442 7.30697 36.6356 7.58964C35.8561 8.30316 37.041 8.91555 37.9214 8.25467C38.8886 7.52851 38.8902 7.07797 37.9285 5.57757C37.1828 4.41351 37.1484 4.3903 36.6984 4.73826L36.6988 4.73763ZM5.44082 9.76066C4.04761 9.99547 3.23201 10.8659 3.22115 12.1294C3.21028 13.4186 3.99253 14.1531 5.93019 14.6712C7.1178 14.9889 7.50883 15.2313 7.50883 15.6491C7.50883 16.8258 5.53742 16.7081 5.32891 15.5192C5.25579 15.1043 5.2651 15.1066 4.00765 15.1793L2.89258 15.244L2.94824 15.617C3.20253 17.3271 4.13315 18.0388 6.20658 18.1082C7.85078 18.1629 8.41598 17.9928 9.13382 17.2258L9.62532 16.7006L9.80589 16.9611C10.8506 18.4707 14.3795 18.5722 15.5382 17.1255C15.877 16.7029 16.2572 15.9067 16.296 15.5401C16.3233 15.2819 16.3156 15.2773 15.2829 14.9426L14.2427 14.6053L14.1031 15.0541C13.6273 16.5842 11.831 16.6016 11.4365 15.0805C11.3023 14.5634 11.3186 13.3285 11.467 12.7963C11.8248 11.51 13.3364 11.2459 13.9497 12.3632C14.2055 12.8294 14.1368 12.8207 15.2977 12.5403C16.4029 12.2734 16.3553 12.3207 16.1034 11.7406C15.1039 9.44297 11.7441 8.90394 9.96261 10.7544L9.46569 11.2708L9.25951 10.8949C8.74571 9.95754 7.12498 9.47613 5.44199 9.76066H5.44082ZM28.9678 9.76295C28.0246 9.93785 27.0928 10.572 26.5664 11.3966C26.4255 11.6175 26.4219 11.5995 26.4174 10.7361L26.4129 9.84895H23.9434V12.6695H21.4739V9.84895H19.0044V18.0375H21.4739V14.7619H23.9434V18.0375H26.4129V16.1863L26.6796 16.6159C27.7893 18.4052 31.221 18.7193 32.7828 17.1742C34.5901 15.3865 34.2355 11.3199 32.1745 10.1963C31.3791 9.76253 29.9832 9.57374 28.9674 9.76212L28.9678 9.76295ZM6.8255 11.4405C6.96787 11.5193 7.13487 11.7325 7.22545 11.9518L7.38101 12.3283L9.04479 12.2428L8.99029 12.7068C8.91833 13.3206 8.88614 13.3438 8.4088 13.1183C8.184 13.0122 7.55499 12.8064 7.01015 12.6601C5.7211 12.3151 5.56069 12.2411 5.49475 11.9607C5.37255 11.442 6.2252 11.1085 6.82628 11.4407L6.8255 11.4405ZM30.4281 11.7622C31.6892 12.1364 31.9447 15.229 30.7751 15.9645C29.9017 16.5135 28.7965 16.0462 28.5374 15.0175C28.0224 12.9735 28.9765 11.3315 30.4281 11.7622ZM40.7235 11.7599C42.1887 12.1947 42.1588 15.7127 40.6865 16.1365C39.5027 16.4768 38.715 15.5979 38.7211 13.9438C38.7276 12.2249 39.4897 11.3937 40.7237 11.7603L40.7235 11.7599Z" fill="white"/>
</g>
<defs>
<clipPath id="clip0_628_3458">
<rect width="50" height="18.595" fill="white"/>
</clipPath>
</defs>
</svg>
