<svg width="348" height="348" viewBox="0 0 348 348" fill="none" xmlns="http://www.w3.org/2000/svg">
<path d="M167.149 16.5836C170.946 20.3808 177.087 20.3808 180.884 16.5836C184.649 12.7865 184.649 6.61198 180.884 2.84786C177.087 -0.949286 170.946 -0.949286 167.149 2.84786C163.352 6.645 163.352 12.7865 167.149 16.5836Z" fill="#EF4444"/>
<path d="M208.224 43.89C212.021 40.0929 218.162 40.0929 221.96 43.89C225.724 47.6871 225.724 53.8616 221.96 57.6258C218.162 61.4229 212.021 61.4229 208.224 57.6258C204.427 53.8286 204.427 47.6871 208.224 43.89Z" fill="#EF4444"/>
<path d="M249.266 84.9652C253.063 81.1681 259.205 81.1681 263.002 84.9652C266.799 88.7623 266.799 94.9038 263.002 98.701C259.205 102.498 253.063 102.498 249.266 98.701C245.469 94.9038 245.469 88.7623 249.266 84.9652Z" fill="#EF4444"/>
<path d="M290.341 126.04C294.138 122.243 300.28 122.243 304.077 126.04C307.874 129.837 307.874 135.979 304.077 139.776C300.28 143.573 294.138 143.573 290.341 139.776C286.544 135.979 286.544 129.837 290.341 126.04Z" fill="#EF4444"/>
<path d="M331.416 167.115C335.214 163.318 341.355 163.318 345.152 167.115C348.949 170.913 348.949 177.054 345.152 180.851C341.355 184.649 335.214 184.649 331.416 180.851C327.619 177.054 327.619 170.913 331.416 167.115Z" fill="#EF4444"/>
<path d="M126.073 43.89C129.871 40.0929 136.012 40.0929 139.809 43.89C143.606 47.6871 143.606 53.8616 139.809 57.6258C136.012 61.4229 129.871 61.4229 126.073 57.6258C122.276 53.8286 122.276 47.6871 126.073 43.89Z" fill="#EF4444"/>
<path d="M167.149 84.9652C170.946 81.1681 177.087 81.1681 180.884 84.9652C184.649 88.7623 184.649 94.9038 180.884 98.701C177.087 102.498 170.946 102.498 167.149 98.701C163.352 94.9038 163.352 88.7623 167.149 84.9652Z" fill="#EF4444"/>
<path d="M208.224 126.04C212.021 122.243 218.162 122.243 221.96 126.04C225.724 129.837 225.724 135.979 221.96 139.776C218.162 143.573 212.021 143.573 208.224 139.776C204.427 135.979 204.427 129.837 208.224 126.04Z" fill="#EF4444"/>
<path d="M249.266 167.115C253.063 163.318 259.205 163.318 263.002 167.115C266.799 170.913 266.799 177.054 263.002 180.851C259.205 184.649 253.063 184.649 249.266 180.851C245.469 177.054 245.469 170.913 249.266 167.115Z" fill="#EF4444"/>
<path d="M290.341 208.191C294.138 204.394 300.28 204.394 304.077 208.191C307.874 211.988 307.874 218.129 304.077 221.927C300.28 225.724 294.138 225.724 290.341 221.927C286.544 218.129 286.544 211.988 290.341 208.191Z" fill="#EF4444"/>
<path d="M84.9983 84.9652C88.7954 81.1681 94.9369 81.1681 98.734 84.9652C102.531 88.7623 102.531 94.9038 98.734 98.701C94.9369 102.498 88.7954 102.498 84.9983 98.701C81.2011 94.9038 81.2011 88.7623 84.9983 84.9652Z" fill="#EF4444"/>
<path d="M126.073 126.04C129.871 122.243 136.012 122.243 139.809 126.04C143.606 129.837 143.606 135.979 139.809 139.776C136.012 143.573 129.871 143.573 126.073 139.776C122.276 135.979 122.276 129.837 126.073 126.04Z" fill="#EF4444"/>
<path d="M167.149 167.115C170.946 163.318 177.087 163.318 180.884 167.115C184.649 170.913 184.649 177.054 180.884 180.851C177.087 184.649 170.946 184.649 167.149 180.851C163.352 177.054 163.352 170.913 167.149 167.115Z" fill="#EF4444"/>
<path d="M208.224 208.191C212.021 204.394 218.162 204.394 221.96 208.191C225.724 211.988 225.724 218.129 221.96 221.927C218.162 225.724 212.021 225.724 208.224 221.927C204.427 218.129 204.427 211.988 208.224 208.191Z" fill="#EF4444"/>
<path d="M249.266 249.266C253.063 245.469 259.205 245.469 263.002 249.266C266.799 253.063 266.799 259.205 263.002 263.002C259.205 266.799 253.063 266.799 249.266 263.002C245.469 259.205 245.469 253.063 249.266 249.266Z" fill="#EF4444"/>
<path d="M43.9231 126.04C47.7202 122.243 53.8617 122.243 57.6588 126.04C61.456 129.837 61.456 135.979 57.6588 139.776C53.8617 143.573 47.7202 143.573 43.9231 139.776C40.1259 135.979 40.1259 129.837 43.9231 126.04Z" fill="#EF4444"/>
<path d="M84.9983 167.115C88.7954 163.318 94.9369 163.318 98.734 167.115C102.531 170.913 102.531 177.054 98.734 180.851C94.9369 184.649 88.7954 184.649 84.9983 180.851C81.2011 177.054 81.2011 170.913 84.9983 167.115Z" fill="#EF4444"/>
<path d="M126.073 208.191C129.871 204.394 136.012 204.394 139.809 208.191C143.606 211.988 143.606 218.129 139.809 221.927C136.012 225.724 129.871 225.724 126.073 221.927C122.276 218.129 122.276 211.988 126.073 208.191Z" fill="#EF4444"/>
<path d="M167.149 249.266C170.946 245.469 177.087 245.469 180.884 249.266C184.649 253.063 184.649 259.205 180.884 263.002C177.087 266.799 170.946 266.799 167.149 263.002C163.352 259.205 163.352 253.063 167.149 249.266Z" fill="#EF4444"/>
<path d="M208.224 290.341C212.021 286.544 218.162 286.544 221.96 290.341C225.724 294.138 225.724 300.28 221.96 304.077C218.162 307.874 212.021 307.874 208.224 304.077C204.427 300.28 204.427 294.138 208.224 290.341Z" fill="#EF4444"/>
<path d="M2.84786 167.115C6.645 163.318 12.7865 163.318 16.5836 167.115C20.3808 170.913 20.3808 177.054 16.5836 180.851C12.7865 184.649 6.645 184.649 2.84786 180.851C-0.949286 177.054 -0.949286 170.913 2.84786 167.115Z" fill="#EF4444"/>
<path d="M43.9231 208.191C47.7202 204.394 53.8617 204.394 57.6588 208.191C61.456 211.988 61.456 218.129 57.6588 221.927C53.8617 225.724 47.7202 225.724 43.9231 221.927C40.1259 218.129 40.1259 211.988 43.9231 208.191Z" fill="#EF4444"/>
<path d="M84.9983 249.266C88.7954 245.469 94.9369 245.469 98.734 249.266C102.531 253.063 102.531 259.205 98.734 263.002C94.9369 266.799 88.7954 266.799 84.9983 263.002C81.2011 259.205 81.2011 253.063 84.9983 249.266Z" fill="#EF4444"/>
<path d="M126.073 290.341C129.871 286.544 136.012 286.544 139.809 290.341C143.606 294.138 143.606 300.28 139.809 304.077C136.012 307.874 129.871 307.874 126.073 304.077C122.276 300.28 122.276 294.138 126.073 290.341Z" fill="#EF4444"/>
<path d="M167.149 331.416C170.946 327.619 177.087 327.619 180.884 331.416C184.649 335.213 184.682 341.355 180.884 345.152C177.087 348.949 170.946 348.949 167.149 345.152C163.352 341.355 163.352 335.213 167.149 331.416Z" fill="#EF4444"/>
</svg>
