<svg width="15" height="15" viewBox="0 0 15 15" fill="none" xmlns="http://www.w3.org/2000/svg">
<path d="M13.3928 0H1.60722C0.719991 0 0 0.689273 0 1.53905V12.8248C0 13.6744 0.7198 14.3638 1.60722 14.3638H13.3928C14.28 14.3638 15 13.6746 15 12.8248V1.53905C15 0.689455 14.2802 0 13.3928 0ZM9.28445 12.302C9.00312 12.3502 8.89951 12.1835 8.89951 12.0456C8.89951 11.8725 8.90617 10.9875 8.90617 10.2725C8.90617 9.77239 8.73208 9.45502 8.52789 9.28831C9.76673 9.1568 11.0724 8.99338 11.0724 6.94453C11.0724 6.36105 10.8547 6.06921 10.4999 5.69421C10.5568 5.55632 10.7477 4.98888 10.4429 4.25146C9.97759 4.11357 8.91284 4.82527 8.91284 4.82527C8.47094 4.70672 7.99209 4.6458 7.5199 4.6458C7.04772 4.6458 6.56906 4.70672 6.12697 4.82527C6.12697 4.82527 5.06222 4.11357 4.59689 4.25146C4.29214 4.9856 4.47975 5.55322 4.53994 5.69421C4.18509 6.0694 4.01766 6.36105 4.01766 6.94453C4.01766 8.98371 5.2666 9.1568 6.50544 9.28831C6.34468 9.4262 6.20068 9.6635 6.15059 10.0033C5.8325 10.1412 5.01898 10.3785 4.53347 9.55771C4.22871 9.0512 3.67976 9.00943 3.67976 9.00943C3.13729 9.00305 3.643 9.33646 3.643 9.33646C4.00452 9.49679 4.25899 10.1124 4.25899 10.1124C4.58375 11.0647 6.13726 10.744 6.13726 10.744C6.13726 11.1896 6.14392 11.9143 6.14392 12.0458C6.14392 12.1837 6.04354 12.3504 5.75898 12.3022C3.5491 11.5936 2.00226 9.58014 2.00226 7.22688C2.00226 4.28356 4.35271 2.04885 7.42638 2.04885C10.5001 2.04885 12.9911 4.28356 12.9911 7.22688C12.9945 9.58014 11.4945 11.5969 9.28464 12.3022L9.28445 12.302ZM5.99992 10.3431C5.93631 10.3559 5.87612 10.3303 5.86926 10.2886C5.86259 10.2404 5.90602 10.1988 5.96964 10.1859C6.03326 10.1795 6.09345 10.205 6.1003 10.2468C6.1104 10.2886 6.06678 10.3302 5.99992 10.3429V10.3431ZM5.68183 10.3143C5.68183 10.3561 5.63155 10.3913 5.56469 10.3913C5.49098 10.3976 5.44088 10.3624 5.44088 10.3143C5.44088 10.2725 5.49117 10.2373 5.55802 10.2373C5.62164 10.2309 5.68183 10.2661 5.68183 10.3143ZM5.22317 10.2789C5.20984 10.3207 5.14279 10.3398 5.08584 10.3207C5.02222 10.3079 4.97879 10.2598 4.99213 10.218C5.00546 10.1762 5.07251 10.1571 5.12946 10.1698C5.19651 10.189 5.23993 10.2371 5.22317 10.2789ZM4.81137 10.1058C4.78127 10.141 4.71765 10.1346 4.66737 10.0867C4.61708 10.0449 4.60375 9.98397 4.63727 9.95515C4.66737 9.91995 4.73099 9.92633 4.78127 9.9743C4.82489 10.0161 4.84146 10.0801 4.81137 10.1058ZM4.50661 9.81416C4.47651 9.83331 4.41956 9.81416 4.3828 9.76601C4.34604 9.71785 4.34604 9.66332 4.3828 9.64088C4.41956 9.61206 4.47651 9.6345 4.50661 9.68265C4.54337 9.7308 4.54337 9.78844 4.50661 9.81416ZM4.28909 9.50317C4.25899 9.53199 4.20871 9.51594 4.17195 9.48402C4.13519 9.44225 4.12833 9.39428 4.15861 9.37185C4.18871 9.34303 4.23899 9.35908 4.27576 9.391C4.31252 9.43277 4.31937 9.48074 4.28909 9.50317ZM4.06471 9.26588C4.05138 9.29469 4.00776 9.30108 3.971 9.27864C3.92738 9.25949 3.90738 9.22411 3.92071 9.19529C3.93405 9.17614 3.971 9.16647 4.01443 9.18252C4.05804 9.20496 4.07804 9.24016 4.06471 9.26588Z" fill="white"/>
</svg>
