<svg width="365" height="365" viewBox="0 0 365 365" fill="none" xmlns="http://www.w3.org/2000/svg">
<path d="M41.4705 209.542C25.8842 168.097 27.3743 123.058 45.6535 82.7258L47.5847 83.6015C10.317 165.794 46.861 262.968 129.053 300.236C168.869 318.289 213.331 319.757 254.24 304.373C295.148 288.989 327.635 258.583 345.678 218.771L347.609 219.647C329.32 259.983 296.42 290.771 254.974 306.358C213.529 321.944 168.49 320.454 128.158 302.175C87.8454 283.888 57.0568 250.988 41.4705 209.542Z" fill="#DBEAFE"/>
<path d="M52.2099 205.504C38.293 168.497 38.4638 126.204 56.0388 87.4431L57.97 88.3188C23.3045 164.772 57.3031 255.179 133.76 289.854C210.214 324.52 300.63 290.517 335.296 214.064L337.227 214.939C302.077 292.461 210.407 326.935 132.875 291.789C94.1238 274.21 66.123 242.5 52.2099 205.504Z" fill="#DBEAFE"/>
<path d="M62.8202 201.514C49.3787 165.771 50.6667 126.932 66.4307 92.1468L68.3619 93.0225C52.8239 127.291 51.5677 165.55 64.8071 200.755C78.0502 235.97 104.215 263.917 138.47 279.449C172.739 294.987 210.998 296.243 246.203 283.003C281.418 269.76 309.365 243.595 324.896 209.34L326.828 210.216C311.06 244.991 282.684 271.556 246.942 284.998C211.199 298.439 172.36 297.151 137.575 281.387C102.823 265.622 76.2617 237.256 62.8202 201.514Z" fill="#DBEAFE"/>
<path d="M73.5597 197.475C61.7015 165.943 61.8471 129.896 76.8262 96.8603L78.7574 97.736C49.2836 162.739 78.1878 239.599 143.191 269.073C208.195 298.547 285.054 269.642 314.528 204.639L316.459 205.515C286.501 271.586 208.377 300.966 142.316 271.004C109.28 256.025 85.4178 229.007 73.5597 197.475Z" fill="#DBEAFE"/>
<path d="M84.2298 193.462C73.401 164.667 73.5271 131.741 87.2083 101.568L89.1395 102.443C62.2616 161.722 88.6168 231.803 147.891 258.671C207.169 285.549 277.251 259.194 304.119 199.919L306.05 200.795C278.694 261.128 207.339 287.962 147.006 260.606C116.85 246.941 95.0586 222.257 84.2298 193.462Z" fill="#DBEAFE"/>
<path d="M94.8998 189.449C85.0966 163.382 85.2169 133.582 97.5939 106.285L99.5251 107.161C75.2493 160.7 99.0591 224.013 152.599 248.289C178.54 260.051 207.506 261.007 234.161 250.983C260.816 240.959 281.975 221.153 293.737 195.212L295.668 196.087C283.68 222.545 262.089 242.742 234.906 252.964C207.724 263.186 178.171 262.212 151.723 250.22C124.426 237.843 104.703 215.517 94.8998 189.449Z" fill="#DBEAFE"/>
<path d="M105.57 185.437C96.7963 162.106 96.9009 135.437 107.986 110.989L109.917 111.864C88.2374 159.679 109.498 216.214 157.313 237.894C205.127 259.574 261.662 238.313 283.342 190.498L285.273 191.374C263.109 240.257 205.31 261.993 156.427 239.829C132.006 228.756 114.344 208.768 105.57 185.437Z" fill="#DBEAFE"/>
</svg>
