<svg width="74" height="74" viewBox="0 0 74 74" fill="none" xmlns="http://www.w3.org/2000/svg">
<path d="M38.0037 3.48421C37.206 4.28199 35.9156 4.28199 35.1179 3.48421C34.3201 2.68644 34.3201 1.39611 35.1179 0.598334C35.9156 -0.199445 37.206 -0.199445 38.0037 0.598334C38.7946 1.38918 38.7946 2.68644 38.0037 3.48421ZM46.6336 9.22127C45.8359 8.4235 44.5455 8.4235 43.7478 9.22127C42.95 10.0191 42.95 11.3094 43.7478 12.1072C44.5455 12.9049 45.8359 12.9049 46.6336 12.1072C47.4245 11.3163 47.4245 10.0191 46.6336 9.22127ZM55.2566 17.8512C54.4588 17.0534 53.1685 17.0534 52.3707 17.8512C51.5729 18.6489 51.5729 19.9393 52.3707 20.737C53.1685 21.5348 54.4588 21.5348 55.2566 20.737C56.0544 19.9393 56.0544 18.6489 55.2566 17.8512ZM63.8865 26.481C63.0887 25.6832 61.7984 25.6832 61.0006 26.481C60.2028 27.2788 60.2028 28.5691 61.0006 29.3669C61.7984 30.1647 63.0887 30.1647 63.8865 29.3669C64.6842 28.5691 64.6842 27.2788 63.8865 26.481ZM72.5163 35.1109C71.7186 34.3131 70.4282 34.3131 69.6305 35.1109C68.8327 35.9087 68.8327 37.199 69.6305 37.9968C70.4282 38.7946 71.7186 38.7946 72.5163 37.9968C73.3141 37.199 73.3141 35.9087 72.5163 35.1109ZM29.3739 9.22127C28.5761 8.4235 27.2858 8.4235 26.488 9.22127C25.6902 10.0191 25.6902 11.3094 26.488 12.1072C27.2858 12.9049 28.5761 12.9049 29.3739 12.1072C30.1716 11.3163 30.1716 10.0191 29.3739 9.22127ZM38.0037 17.8512C37.206 17.0534 35.9156 17.0534 35.1179 17.8512C34.3201 18.6489 34.3201 19.9393 35.1179 20.737C35.9156 21.5348 37.206 21.5348 38.0037 20.737C38.7946 19.9393 38.7946 18.6489 38.0037 17.8512ZM46.6336 26.481C45.8359 25.6832 44.5455 25.6832 43.7478 26.481C42.95 27.2788 42.95 28.5691 43.7478 29.3669C44.5455 30.1647 45.8359 30.1647 46.6336 29.3669C47.4245 28.5691 47.4245 27.2788 46.6336 26.481ZM55.2566 35.1109C54.4588 34.3131 53.1685 34.3131 52.3707 35.1109C51.5729 35.9087 51.5729 37.199 52.3707 37.9968C53.1685 38.7946 54.4588 38.7946 55.2566 37.9968C56.0544 37.199 56.0544 35.9087 55.2566 35.1109ZM63.8865 43.7408C63.0887 42.943 61.7984 42.943 61.0006 43.7408C60.2028 44.5386 60.2028 45.8289 61.0006 46.6267C61.7984 47.4245 63.0887 47.4245 63.8865 46.6267C64.6842 45.8289 64.6842 44.5386 63.8865 43.7408ZM20.744 17.8512C19.9462 17.0534 18.6559 17.0534 17.8581 17.8512C17.0603 18.6489 17.0603 19.9393 17.8581 20.737C18.6559 21.5348 19.9462 21.5348 20.744 20.737C21.5418 19.9393 21.5418 18.6489 20.744 17.8512ZM29.3739 26.481C28.5761 25.6832 27.2858 25.6832 26.488 26.481C25.6902 27.2788 25.6902 28.5691 26.488 29.3669C27.2858 30.1647 28.5761 30.1647 29.3739 29.3669C30.1716 28.5691 30.1716 27.2788 29.3739 26.481ZM38.0037 35.1109C37.206 34.3131 35.9156 34.3131 35.1179 35.1109C34.3201 35.9087 34.3201 37.199 35.1179 37.9968C35.9156 38.7946 37.206 38.7946 38.0037 37.9968C38.7946 37.199 38.7946 35.9087 38.0037 35.1109ZM46.6336 43.7408C45.8359 42.943 44.5455 42.943 43.7478 43.7408C42.95 44.5386 42.95 45.8289 43.7478 46.6267C44.5455 47.4245 45.8359 47.4245 46.6336 46.6267C47.4245 45.8289 47.4245 44.5386 46.6336 43.7408ZM55.2566 52.3707C54.4588 51.5729 53.1685 51.5729 52.3707 52.3707C51.5729 53.1685 51.5729 54.4588 52.3707 55.2566C53.1685 56.0544 54.4588 56.0544 55.2566 55.2566C56.0544 54.4588 56.0544 53.1685 55.2566 52.3707ZM12.1141 26.481C11.3163 25.6832 10.026 25.6832 9.22822 26.481C8.43044 27.2788 8.43044 28.5691 9.22822 29.3669C10.026 30.1647 11.3163 30.1647 12.1141 29.3669C12.9119 28.5691 12.9119 27.2788 12.1141 26.481ZM20.744 35.1109C19.9462 34.3131 18.6559 34.3131 17.8581 35.1109C17.0603 35.9087 17.0603 37.199 17.8581 37.9968C18.6559 38.7946 19.9462 38.7946 20.744 37.9968C21.5418 37.199 21.5418 35.9087 20.744 35.1109ZM29.3739 43.7408C28.5761 42.943 27.2858 42.943 26.488 43.7408C25.6902 44.5386 25.6902 45.8289 26.488 46.6267C27.2858 47.4245 28.5761 47.4245 29.3739 46.6267C30.1716 45.8289 30.1716 44.5386 29.3739 43.7408ZM38.0037 52.3707C37.206 51.5729 35.9156 51.5729 35.1179 52.3707C34.3201 53.1685 34.3201 54.4588 35.1179 55.2566C35.9156 56.0544 37.206 56.0544 38.0037 55.2566C38.7946 54.4588 38.7946 53.1685 38.0037 52.3707ZM46.6336 61.0006C45.8359 60.2028 44.5455 60.2028 43.7478 61.0006C42.95 61.7983 42.95 63.0887 43.7478 63.8865C44.5455 64.6842 45.8359 64.6842 46.6336 63.8865C47.4245 63.0887 47.4245 61.7983 46.6336 61.0006ZM3.48421 35.1109C2.68644 34.3131 1.39611 34.3131 0.598334 35.1109C-0.199445 35.9087 -0.199445 37.199 0.598334 37.9968C1.39611 38.7946 2.68644 38.7946 3.48421 37.9968C4.28199 37.199 4.28199 35.9087 3.48421 35.1109ZM12.1141 43.7408C11.3163 42.943 10.026 42.943 9.22822 43.7408C8.43044 44.5386 8.43044 45.8289 9.22822 46.6267C10.026 47.4245 11.3163 47.4245 12.1141 46.6267C12.9119 45.8289 12.9119 44.5386 12.1141 43.7408ZM20.744 52.3707C19.9462 51.5729 18.6559 51.5729 17.8581 52.3707C17.0603 53.1685 17.0603 54.4588 17.8581 55.2566C18.6559 56.0544 19.9462 56.0544 20.744 55.2566C21.5418 54.4588 21.5418 53.1685 20.744 52.3707ZM29.3739 61.0006C28.5761 60.2028 27.2858 60.2028 26.488 61.0006C25.6902 61.7983 25.6902 63.0887 26.488 63.8865C27.2858 64.6842 28.5761 64.6842 29.3739 63.8865C30.1716 63.0887 30.1716 61.7983 29.3739 61.0006ZM38.0037 69.6304C37.206 68.8327 35.9156 68.8327 35.1179 69.6304C34.3201 70.4282 34.3201 71.7186 35.1179 72.5163C35.9156 73.3141 37.206 73.3141 38.0037 72.5163C38.8015 71.7186 38.7946 70.4282 38.0037 69.6304Z" fill="#B91C1C"/>
</svg>
