<svg width="317" height="280" viewBox="0 0 317 280" fill="none" xmlns="http://www.w3.org/2000/svg">
<path d="M292.747 223.314L242.808 232.086L244.135 181.787L194.196 190.559L195.537 140.273L151.491 148.011L152.66 103.646L102.721 112.418L104.048 62.1193L54.1093 70.8913L55.4504 20.6054L5.87742 29.3123L5.71508 34.8952L49.7614 27.1574L48.4203 77.4432L98.3588 68.6712L97.0325 118.97L146.971 110.198L145.786 154.581L189.848 146.825L188.507 197.111L238.446 188.339L237.119 238.638L287.058 229.866L285.889 274.231L291.416 273.231L292.747 223.314Z" fill="#3B82F6"/>
<path fill-rule="evenodd" clip-rule="evenodd" d="M154.122 182.851C177.644 185.098 198.533 167.85 200.78 144.328C203.026 120.806 185.779 99.917 162.257 97.6706C138.735 95.4242 117.846 112.671 115.599 136.193C113.353 159.715 130.6 180.605 154.122 182.851ZM151.478 210.535C190.289 214.241 224.757 185.783 228.463 146.972C232.17 108.161 203.712 73.6936 164.901 69.987C126.09 66.2804 91.6222 94.7383 87.9156 133.55C84.209 172.361 112.667 206.828 151.478 210.535Z" fill="#059669"/>
<path d="M157.94 97.5039C134.438 97.6524 115.432 116.75 115.432 140.287C115.432 152.558 120.597 163.622 128.873 171.423L109.203 191.093C95.8977 178.254 87.6221 160.237 87.6221 140.287C87.6221 101.391 119.079 69.8427 157.94 69.6939V97.5039Z" fill="#EF4444"/>
<path d="M232.834 85.9674L271.006 130.603L215.863 152.106L232.834 85.9674Z" fill="#FBBF24" stroke="#1F2937"/>
</svg>
