<svg width="771" height="738" viewBox="0 0 771 738" fill="none" xmlns="http://www.w3.org/2000/svg">
<path d="M666.135 242.552L668.297 338.685L574.378 321.811L576.54 417.944L482.649 401.046L484.557 485.836L401.716 470.955L403.878 567.088L309.959 550.214L312.121 646.347L218.23 629.449L220.374 724.878L230.795 726.779L228.886 641.989L322.777 658.886L320.615 562.754L414.534 579.627L412.373 483.495L495.243 498.411L493.305 413.586L587.196 430.483L585.034 334.351L678.953 351.224L676.792 255.092L759.632 269.973L759.339 259.324L666.135 242.552Z" fill="#B45309"/>
<path d="M580.269 141.51L582.431 237.642L488.512 220.769L490.674 316.901L396.783 300.004L398.508 376.267L409.166 388.865L407.439 312.543L501.33 329.441L499.169 233.308L593.087 250.182L590.926 154.049L673.767 168.931L673.444 158.247L580.269 141.51Z" fill="#4338CA"/>
<path d="M90.7692 450.885L146.901 517.052L165.092 444.072L90.7692 450.885Z" fill="#FFC200"/>
<path d="M123.616 358.775L242.248 498.545L280.734 344.359L123.616 358.775ZM166.765 378.41L250.1 370.761L229.705 452.532L166.765 378.41Z" fill="#B45309"/>
</svg>
