<svg width="184" height="135" viewBox="0 0 184 135" fill="none" xmlns="http://www.w3.org/2000/svg">
<path d="M177.793 72.5712V60.1577M171.586 66.3645H184H171.586Z" stroke="#8BD2BD" stroke-miterlimit="10"/>
<path d="M177.793 42.0149V29.6013M171.586 35.8081H184H171.586Z" stroke="#8BD2BD" stroke-miterlimit="10"/>
<path d="M177.793 12.4135V0M171.586 6.20677H184H171.586Z" stroke="#8BD2BD" stroke-miterlimit="10"/>
<path d="M177.793 72.5712V60.1577M171.586 66.3645H184H171.586Z" stroke="#E5E7EB" stroke-width="2" stroke-miterlimit="10"/>
<path d="M177.793 42.0149V29.6013M171.586 35.8081H184H171.586Z" stroke="#E5E7EB" stroke-width="2" stroke-miterlimit="10"/>
<path d="M177.793 12.4135V0M171.586 6.20677H184H171.586Z" stroke="#E5E7EB" stroke-width="2" stroke-miterlimit="10"/>
<path d="M149.147 72.5712V60.1577M142.94 66.3645H155.354H142.94Z" stroke="#8BD2BD" stroke-miterlimit="10"/>
<path d="M149.147 42.0149V29.6013M142.94 35.8081H155.354H142.94Z" stroke="#8BD2BD" stroke-miterlimit="10"/>
<path d="M149.146 12.4135V0M142.939 6.20677H155.353H142.939Z" stroke="#8BD2BD" stroke-miterlimit="10"/>
<path d="M149.147 72.5712V60.1577M142.94 66.3645H155.354H142.94Z" stroke="#E5E7EB" stroke-width="2" stroke-miterlimit="10"/>
<path d="M149.147 42.0149V29.6013M142.94 35.8081H155.354H142.94Z" stroke="#E5E7EB" stroke-width="2" stroke-miterlimit="10"/>
<path d="M149.146 12.4135V0M142.939 6.20677H155.353H142.939Z" stroke="#E5E7EB" stroke-width="2" stroke-miterlimit="10"/>
<path d="M120.5 42.0149V29.6013M114.293 35.8081H126.707H114.293Z" stroke="#8BD2BD" stroke-miterlimit="10"/>
<path d="M120.499 12.4135V0M114.293 6.20677H126.706H114.293Z" stroke="#8BD2BD" stroke-miterlimit="10"/>
<path d="M120.5 42.0149V29.6013M114.293 35.8081H126.707H114.293Z" stroke="#E5E7EB" stroke-width="2" stroke-miterlimit="10"/>
<path d="M120.499 12.4135V0M114.293 6.20677H126.706H114.293Z" stroke="#E5E7EB" stroke-width="2" stroke-miterlimit="10"/>
<path d="M91.8533 42.0149V29.6013M85.6465 35.8081H98.0601H85.6465Z" stroke="#8BD2BD" stroke-miterlimit="10"/>
<path d="M91.8533 12.4135V0M85.6465 6.20677H98.0601H85.6465Z" stroke="#8BD2BD" stroke-miterlimit="10"/>
<path d="M91.8533 42.0149V29.6013M85.6465 35.8081H98.0601H85.6465Z" stroke="#E5E7EB" stroke-width="2" stroke-miterlimit="10"/>
<path d="M91.8533 12.4135V0M85.6465 6.20677H98.0601H85.6465Z" stroke="#E5E7EB" stroke-width="2" stroke-miterlimit="10"/>
<path d="M63.2068 42.0149V29.6013M57 35.8081H69.4136H57Z" stroke="#8BD2BD" stroke-miterlimit="10"/>
<path d="M63.2068 12.4135V0M57 6.20677H69.4136H57Z" stroke="#8BD2BD" stroke-miterlimit="10"/>
<path d="M63.2068 42.0149V29.6013M57 35.8081H69.4136H57Z" stroke="#E5E7EB" stroke-width="2" stroke-miterlimit="10"/>
<path d="M63.2068 12.4135V0M57 6.20677H69.4136H57Z" stroke="#E5E7EB" stroke-width="2" stroke-miterlimit="10"/>
<path d="M120.793 134.571V122.158M114.586 128.364H127H114.586Z" stroke="#8BD2BD" stroke-miterlimit="10"/>
<path d="M120.793 104.015V91.6013M114.586 97.8081H127H114.586Z" stroke="#8BD2BD" stroke-miterlimit="10"/>
<path d="M120.793 74.4135V62M114.586 68.2068H127H114.586Z" stroke="#8BD2BD" stroke-miterlimit="10"/>
<path d="M120.793 134.571V122.158M114.586 128.364H127H114.586Z" stroke="#E5E7EB" stroke-width="2" stroke-miterlimit="10"/>
<path d="M120.793 104.015V91.6013M114.586 97.8081H127H114.586Z" stroke="#E5E7EB" stroke-width="2" stroke-miterlimit="10"/>
<path d="M120.793 74.4135V62M114.586 68.2068H127H114.586Z" stroke="#E5E7EB" stroke-width="2" stroke-miterlimit="10"/>
<path d="M92.1467 134.571V122.158M85.94 128.364H98.3535H85.94Z" stroke="#8BD2BD" stroke-miterlimit="10"/>
<path d="M92.1467 104.015V91.6013M85.94 97.8081H98.3535H85.94Z" stroke="#8BD2BD" stroke-miterlimit="10"/>
<path d="M92.1463 74.4135V62M85.9395 68.2068H98.353H85.9395Z" stroke="#8BD2BD" stroke-miterlimit="10"/>
<path d="M92.1467 134.571V122.158M85.94 128.364H98.3535H85.94Z" stroke="#E5E7EB" stroke-width="2" stroke-miterlimit="10"/>
<path d="M92.1467 104.015V91.6013M85.94 97.8081H98.3535H85.94Z" stroke="#E5E7EB" stroke-width="2" stroke-miterlimit="10"/>
<path d="M92.1463 74.4135V62M85.9395 68.2068H98.353H85.9395Z" stroke="#E5E7EB" stroke-width="2" stroke-miterlimit="10"/>
<path d="M63.5003 104.015V91.6013M57.2935 97.8081H69.707H57.2935Z" stroke="#8BD2BD" stroke-miterlimit="10"/>
<path d="M63.4998 74.4135V62M57.293 68.2068H69.7065H57.293Z" stroke="#8BD2BD" stroke-miterlimit="10"/>
<path d="M63.5003 104.015V91.6013M57.2935 97.8081H69.707H57.2935Z" stroke="#E5E7EB" stroke-width="2" stroke-miterlimit="10"/>
<path d="M63.4998 74.4135V62M57.293 68.2068H69.7065H57.293Z" stroke="#E5E7EB" stroke-width="2" stroke-miterlimit="10"/>
<path d="M34.8533 104.015V91.6013M28.6465 97.8081H41.0601H28.6465Z" stroke="#8BD2BD" stroke-miterlimit="10"/>
<path d="M34.8533 74.4135V62M28.6465 68.2068H41.0601H28.6465Z" stroke="#8BD2BD" stroke-miterlimit="10"/>
<path d="M34.8533 104.015V91.6013M28.6465 97.8081H41.0601H28.6465Z" stroke="#E5E7EB" stroke-width="2" stroke-miterlimit="10"/>
<path d="M34.8533 74.4135V62M28.6465 68.2068H41.0601H28.6465Z" stroke="#E5E7EB" stroke-width="2" stroke-miterlimit="10"/>
<path d="M6.20681 104.015V91.6013M3.96967e-05 97.8081H12.4136H3.96967e-05Z" stroke="#8BD2BD" stroke-miterlimit="10"/>
<path d="M6.20681 74.4135V62M3.96967e-05 68.2068H12.4136H3.96967e-05Z" stroke="#8BD2BD" stroke-miterlimit="10"/>
<path d="M6.20681 104.015V91.6013M3.96967e-05 97.8081H12.4136H3.96967e-05Z" stroke="#E5E7EB" stroke-width="2" stroke-miterlimit="10"/>
<path d="M6.20681 74.4135V62M3.96967e-05 68.2068H12.4136H3.96967e-05Z" stroke="#E5E7EB" stroke-width="2" stroke-miterlimit="10"/>
<path d="M63.5003 134.015V121.601M57.2935 127.808H69.707H57.2935Z" stroke="#8BD2BD" stroke-miterlimit="10"/>
<path d="M63.4998 104.414V92M57.293 98.2068H69.7065H57.293Z" stroke="#8BD2BD" stroke-miterlimit="10"/>
<path d="M63.5003 134.015V121.601M57.2935 127.808H69.707H57.2935Z" stroke="#E5E7EB" stroke-width="2" stroke-miterlimit="10"/>
<path d="M63.4998 104.414V92M57.293 98.2068H69.7065H57.293Z" stroke="#E5E7EB" stroke-width="2" stroke-miterlimit="10"/>
<path d="M34.8538 134.015V121.601M28.647 127.808H41.0605H28.647Z" stroke="#8BD2BD" stroke-miterlimit="10"/>
<path d="M34.8538 104.414V92M28.647 98.2068H41.0605H28.647Z" stroke="#8BD2BD" stroke-miterlimit="10"/>
<path d="M34.8538 134.015V121.601M28.647 127.808H41.0605H28.647Z" stroke="#E5E7EB" stroke-width="2" stroke-miterlimit="10"/>
<path d="M34.8538 104.414V92M28.647 98.2068H41.0605H28.647Z" stroke="#E5E7EB" stroke-width="2" stroke-miterlimit="10"/>
<path d="M6.2073 134.015V121.601M0.000527978 127.808H12.4141H0.000527978Z" stroke="#8BD2BD" stroke-miterlimit="10"/>
<path d="M6.2073 104.414V92M0.000527978 98.2068H12.4141H0.000527978Z" stroke="#8BD2BD" stroke-miterlimit="10"/>
<path d="M6.2073 134.015V121.601M0.000527978 127.808H12.4141H0.000527978Z" stroke="#E5E7EB" stroke-width="2" stroke-miterlimit="10"/>
<path d="M6.2073 104.414V92M0.000527978 98.2068H12.4141H0.000527978Z" stroke="#E5E7EB" stroke-width="2" stroke-miterlimit="10"/>
</svg>
