<svg width="75" height="65" viewBox="0 0 75 65" fill="none" xmlns="http://www.w3.org/2000/svg">
<path d="M34.6305 16.7695C34.6305 17.3646 34.148 17.8497 33.5503 17.8497C32.9524 17.8497 32.4701 17.3674 32.4701 16.7695C32.4701 16.1744 32.9527 15.6893 33.5503 15.6893C34.1482 15.6893 34.6305 16.1716 34.6305 16.7695Z" fill="#8B5CF6" stroke="#8B5CF6" stroke-width="0.339695"/>
<path d="M41.3305 16.7695C41.3305 17.3646 40.8479 17.8497 40.2503 17.8497C39.6552 17.8497 39.1701 17.3671 39.1701 16.7695C39.1701 16.1744 39.6527 15.6893 40.2503 15.6893C40.8454 15.6893 41.3305 16.1719 41.3305 16.7695Z" fill="#8B5CF6" stroke="#8B5CF6" stroke-width="0.339695"/>
<path d="M48.0304 16.7695C48.0304 17.3646 47.5479 17.8497 46.9502 17.8497C46.3523 17.8497 45.87 17.3674 45.87 16.7695C45.87 16.1744 46.3526 15.6893 46.9502 15.6893C47.5481 15.6893 48.0304 16.1716 48.0304 16.7695Z" fill="#8B5CF6" stroke="#8B5CF6" stroke-width="0.339695"/>
<path d="M54.7273 16.7695C54.7273 17.3646 54.2448 17.8497 53.6471 17.8497C53.0492 17.8497 52.5669 17.3674 52.5669 16.7695C52.5669 16.1744 53.0495 15.6893 53.6471 15.6893C54.245 15.6893 54.7273 16.1716 54.7273 16.7695Z" fill="#E5E7EB" stroke="#8B5CF6" stroke-width="0.339695"/>
<path d="M61.4272 16.7695C61.4272 17.3646 60.9446 17.8497 60.347 17.8497C59.7519 17.8497 59.2668 17.3671 59.2668 16.7695C59.2668 16.1744 59.7493 15.6893 60.347 15.6893C60.9449 15.6893 61.4272 16.1716 61.4272 16.7695Z" fill="#8B5CF6" stroke="#8B5CF6" stroke-width="0.339695"/>
<path d="M68.1271 16.7695C68.1271 17.3646 67.6445 17.8497 67.0469 17.8497C66.449 17.8497 65.9667 17.3674 65.9667 16.7695C65.9667 16.1744 66.4493 15.6893 67.0469 15.6893C67.6448 15.6893 68.1271 16.1716 68.1271 16.7695Z" fill="#8B5CF6" stroke="#8B5CF6" stroke-width="0.339695"/>
<path d="M74.827 16.7695C74.827 17.3646 74.3445 17.8497 73.7469 17.8497C73.149 17.8497 72.6667 17.3674 72.6667 16.7695C72.6667 16.1744 73.1492 15.6893 73.7469 15.6893C74.3448 15.6893 74.827 16.1716 74.827 16.7695Z" fill="#E5E7EB" stroke="#8B5CF6" stroke-width="0.339695"/>
<path d="M33.5503 20.8631C34.1469 20.8631 34.6305 21.3468 34.6305 21.9433C34.6305 22.5399 34.1469 23.0235 33.5503 23.0235C32.9538 23.0235 32.4701 22.5399 32.4701 21.9433C32.4701 21.3468 32.9538 20.8631 33.5503 20.8631Z" fill="#8B5CF6" stroke="#8B5CF6" stroke-width="0.339695"/>
<path d="M41.5003 21.9433C41.5003 22.6319 40.942 23.1934 40.2503 23.1934C39.5617 23.1934 39.0002 22.635 39.0002 21.9433C39.0002 21.2547 39.5586 20.6933 40.2503 20.6933C40.9389 20.6933 41.5003 21.2547 41.5003 21.9433Z" stroke="#8B5CF6" stroke-width="0.339695" stroke-miterlimit="10"/>
<path d="M46.9502 20.8631C47.5468 20.8631 48.0304 21.3468 48.0304 21.9433C48.0304 22.5399 47.5468 23.0235 46.9502 23.0235C46.3537 23.0235 45.87 22.5399 45.87 21.9433C45.87 21.3468 46.3537 20.8631 46.9502 20.8631Z" fill="#8B5CF6" stroke="#8B5CF6" stroke-width="0.339695"/>
<path d="M53.6501 20.8631C54.2466 20.8631 54.7302 21.3468 54.7302 21.9433C54.7302 22.5399 54.2466 23.0235 53.6501 23.0235C53.0535 23.0235 52.5699 22.5399 52.5699 21.9433C52.5699 21.3468 53.0535 20.8631 53.6501 20.8631Z" fill="#8B5CF6" stroke="#8B5CF6" stroke-width="0.339695"/>
<path d="M61.4272 21.9433C61.4272 22.5384 60.9446 23.0235 60.347 23.0235C59.7519 23.0235 59.2668 22.541 59.2668 21.9433C59.2668 21.3482 59.7493 20.8631 60.347 20.8631C60.9446 20.8631 61.4272 21.3482 61.4272 21.9433Z" fill="#8B5CF6" stroke="#8B5CF6" stroke-width="0.339695"/>
<path d="M68.3001 21.9433C68.3001 21.2529 67.7405 20.6933 67.0501 20.6933C66.3597 20.6933 65.8 21.2529 65.8 21.9433C65.8 22.6337 66.3597 23.1934 67.0501 23.1934C67.7405 23.1934 68.3001 22.6337 68.3001 21.9433Z" stroke="#8B5CF6" stroke-width="0.339695" stroke-miterlimit="10"/>
<path d="M73.75 20.8631C74.3466 20.8631 74.8302 21.3468 74.8302 21.9433C74.8302 22.5399 74.3466 23.0235 73.75 23.0235C73.1535 23.0235 72.6698 22.5399 72.6698 21.9433C72.6698 21.3468 73.1535 20.8631 73.75 20.8631Z" fill="#8B5CF6" stroke="#8B5CF6" stroke-width="0.339695"/>
<path d="M33.5503 26.0409C34.1469 26.0409 34.6305 26.5245 34.6305 27.1211C34.6305 27.7176 34.1469 28.2012 33.5503 28.2012C32.9538 28.2012 32.4701 27.7176 32.4701 27.1211C32.4701 26.5245 32.9538 26.0409 33.5503 26.0409Z" fill="#8B5CF6" stroke="#8B5CF6" stroke-width="0.339695"/>
<path d="M41.3305 27.1211C41.3305 27.7161 40.8479 28.2012 40.2503 28.2012C39.6552 28.2012 39.1701 27.7187 39.1701 27.1211C39.1701 26.5232 39.6524 26.0409 40.2503 26.0409C40.8454 26.0409 41.3305 26.5234 41.3305 27.1211Z" fill="#8B5CF6" stroke="#8B5CF6" stroke-width="0.339695"/>
<path d="M46.9502 26.0409C47.5468 26.0409 48.0304 26.5245 48.0304 27.1211C48.0304 27.7176 47.5468 28.2012 46.9502 28.2012C46.3537 28.2012 45.87 27.7176 45.87 27.1211C45.87 26.5245 46.3537 26.0409 46.9502 26.0409Z" fill="#8B5CF6" stroke="#8B5CF6" stroke-width="0.339695"/>
<path d="M53.6501 26.0409C54.2466 26.0409 54.7302 26.5245 54.7302 27.1211C54.7302 27.7176 54.2466 28.2012 53.6501 28.2012C53.0535 28.2012 52.5699 27.7176 52.5699 27.1211C52.5699 26.5245 53.0535 26.0409 53.6501 26.0409Z" fill="#8B5CF6" stroke="#8B5CF6" stroke-width="0.339695"/>
<path d="M61.4272 27.1211C61.4272 27.7161 60.9446 28.2012 60.347 28.2012C59.7519 28.2012 59.2668 27.7187 59.2668 27.1211C59.2668 26.5232 59.7491 26.0409 60.347 26.0409C60.9449 26.0409 61.4272 26.5232 61.4272 27.1211Z" fill="#E5E7EB" stroke="#8B5CF6" stroke-width="0.339695"/>
<path d="M67.0501 26.0409C67.6467 26.0409 68.1303 26.5245 68.1303 27.1211C68.1303 27.7176 67.6467 28.2012 67.0501 28.2012C66.4535 28.2012 65.9699 27.7176 65.9699 27.1211C65.9699 26.5245 66.4535 26.0409 67.0501 26.0409Z" fill="#8B5CF6" stroke="#8B5CF6" stroke-width="0.339695"/>
<path d="M73.75 26.0409C74.3466 26.0409 74.8302 26.5245 74.8302 27.1211C74.8302 27.7176 74.3466 28.2012 73.75 28.2012C73.1535 28.2012 72.6698 27.7176 72.6698 27.1211C72.6698 26.5245 73.1535 26.0409 73.75 26.0409Z" fill="#8B5CF6" stroke="#8B5CF6" stroke-width="0.339695"/>
<path d="M33.5503 31.2167C34.1469 31.2167 34.6305 31.7003 34.6305 32.2968C34.6305 32.8934 34.1469 33.377 33.5503 33.377C32.9538 33.377 32.4701 32.8934 32.4701 32.2968C32.4701 31.7003 32.9538 31.2167 33.5503 31.2167Z" fill="#8B5CF6" stroke="#8B5CF6" stroke-width="0.339695"/>
<path d="M41.3305 32.2968C41.3305 32.8919 40.8479 33.377 40.2503 33.377C39.6552 33.377 39.1701 32.8945 39.1701 32.2968C39.1701 31.6989 39.6524 31.2167 40.2503 31.2167C40.8454 31.2167 41.3305 31.6992 41.3305 32.2968Z" fill="#E5E7EB" stroke="#8B5CF6" stroke-width="0.339695"/>
<path d="M46.9502 31.2167C47.5468 31.2167 48.0304 31.7003 48.0304 32.2968C48.0304 32.8934 47.5468 33.377 46.9502 33.377C46.3537 33.377 45.87 32.8934 45.87 32.2968C45.87 31.7003 46.3537 31.2167 46.9502 31.2167Z" fill="#8B5CF6" stroke="#8B5CF6" stroke-width="0.339695"/>
<path d="M54.9001 32.2968C54.9001 31.6065 54.3404 31.0468 53.6501 31.0468C52.9597 31.0468 52.4 31.6065 52.4 32.2968C52.4 32.9872 52.9597 33.5469 53.6501 33.5469C54.3404 33.5469 54.9001 32.9872 54.9001 32.2968Z" stroke="#8B5CF6" stroke-width="0.339695" stroke-miterlimit="10"/>
<path d="M61.4272 32.2968C61.4272 32.8919 60.9446 33.377 60.347 33.377C59.7519 33.377 59.2668 32.8945 59.2668 32.2968C59.2668 31.6989 59.7491 31.2167 60.347 31.2167C60.9449 31.2167 61.4272 31.6989 61.4272 32.2968Z" fill="#8B5CF6" stroke="#8B5CF6" stroke-width="0.339695"/>
<path d="M67.0501 31.2167C67.6467 31.2167 68.1303 31.7003 68.1303 32.2968C68.1303 32.8934 67.6467 33.377 67.0501 33.377C66.4535 33.377 65.9699 32.8934 65.9699 32.2968C65.9699 31.7003 66.4535 31.2167 67.0501 31.2167Z" fill="#8B5CF6" stroke="#8B5CF6" stroke-width="0.339695"/>
<path d="M73.75 31.2167C74.3466 31.2167 74.8302 31.7003 74.8302 32.2968C74.8302 32.8934 74.3466 33.377 73.75 33.377C73.1535 33.377 72.6698 32.8934 72.6698 32.2968C72.6698 31.7003 73.1535 31.2167 73.75 31.2167Z" fill="#8B5CF6" stroke="#8B5CF6" stroke-width="0.339695"/>
<path d="M34.8004 37.4707C34.8004 36.7803 34.2407 36.2206 33.5503 36.2206C32.86 36.2206 32.3003 36.7803 32.3003 37.4707C32.3003 38.161 32.86 38.7207 33.5503 38.7207C34.2407 38.7207 34.8004 38.161 34.8004 37.4707Z" stroke="#8B5CF6" stroke-width="0.339695" stroke-miterlimit="10"/>
<path d="M41.3305 37.4707C41.3305 38.0657 40.8479 38.5509 40.2503 38.5509C39.6552 38.5509 39.1701 38.0683 39.1701 37.4707C39.1701 36.8756 39.6527 36.3905 40.2503 36.3905C40.8451 36.3905 41.3305 36.8759 41.3305 37.4707Z" fill="#8B5CF6" stroke="#8B5CF6" stroke-width="0.339695"/>
<path d="M46.9502 36.3905C47.5468 36.3905 48.0304 36.8741 48.0304 37.4707C48.0304 38.0672 47.5468 38.5509 46.9502 38.5509C46.3537 38.5509 45.87 38.0672 45.87 37.4707C45.87 36.8741 46.3537 36.3905 46.9502 36.3905Z" fill="#8B5CF6" stroke="#8B5CF6" stroke-width="0.339695"/>
<path d="M53.6502 36.3905C54.2468 36.3905 54.7304 36.8741 54.7304 37.4707C54.7304 38.0672 54.2468 38.5509 53.6502 38.5509C53.0536 38.5509 52.57 38.0672 52.57 37.4707C52.57 36.8741 53.0536 36.3905 53.6502 36.3905Z" fill="#8B5CF6" stroke="#8B5CF6" stroke-width="0.339695"/>
<path d="M61.4272 37.4707C61.4272 38.0657 60.9446 38.5509 60.347 38.5509C59.7519 38.5509 59.2668 38.0683 59.2668 37.4707C59.2668 36.8756 59.7493 36.3905 60.347 36.3905C60.9446 36.3905 61.4272 36.8756 61.4272 37.4707Z" fill="#8B5CF6" stroke="#8B5CF6" stroke-width="0.339695"/>
<path d="M67.0501 36.3905C67.6467 36.3905 68.1303 36.8741 68.1303 37.4707C68.1303 38.0672 67.6467 38.5509 67.0501 38.5509C66.4535 38.5509 65.9699 38.0672 65.9699 37.4707C65.9699 36.8741 66.4535 36.3905 67.0501 36.3905Z" fill="#8B5CF6" stroke="#8B5CF6" stroke-width="0.339695"/>
<path d="M73.75 36.3905C74.3466 36.3905 74.8302 36.8741 74.8302 37.4707C74.8302 38.0672 74.3466 38.5509 73.75 38.5509C73.1535 38.5509 72.6698 38.0672 72.6698 37.4707C72.6698 36.8741 73.1535 36.3905 73.75 36.3905Z" fill="#8B5CF6" stroke="#8B5CF6" stroke-width="0.339695"/>
<path d="M54.9001 1.24996C54.9001 0.559589 54.3404 -7.11336e-05 53.6501 -7.11034e-05C52.9597 -7.10732e-05 52.4 0.559589 52.4 1.24996C52.4 1.94034 52.9597 2.5 53.6501 2.5C54.3404 2.5 54.9001 1.94034 54.9001 1.24996Z" fill="#60A5FA"/>
<path d="M61.5969 1.24996C61.5969 1.93857 61.0386 2.5 60.3468 2.5C59.6582 2.5 59.0968 1.94167 59.0968 1.24996C59.0968 0.558257 59.6551 -7.10731e-05 60.3468 -7.11034e-05C61.0386 -7.11336e-05 61.5969 0.558257 61.5969 1.24996Z" fill="#E5E7EB"/>
<path d="M68.3 1.24996C68.3 0.559589 67.7403 -7.11336e-05 67.05 -7.11034e-05C66.3596 -7.10732e-05 65.7999 0.559589 65.7999 1.24996C65.7999 1.94034 66.3596 2.5 67.05 2.5C67.7403 2.5 68.3 1.94034 68.3 1.24996Z" fill="#60A5FA"/>
<path d="M74.9999 1.24996C74.9999 0.559589 74.4403 -7.11336e-05 73.7499 -7.11034e-05C73.0595 -7.10732e-05 72.4999 0.559589 72.4999 1.24996C72.4999 1.94034 73.0595 2.5 73.7499 2.5C74.4403 2.5 74.9999 1.94034 74.9999 1.24996Z" fill="#60A5FA"/>
<path d="M48.2001 6.42575C48.2001 5.73537 47.6405 5.17571 46.9501 5.17571C46.2597 5.17571 45.7001 5.73537 45.7001 6.42575C45.7001 7.11612 46.2597 7.67578 46.9501 7.67578C47.6405 7.67578 48.2001 7.11612 48.2001 6.42575Z" fill="#60A5FA"/>
<path d="M54.9001 6.42575C54.9001 5.73537 54.3404 5.17571 53.6501 5.17571C52.9597 5.17571 52.4 5.73537 52.4 6.42575C52.4 7.11612 52.9597 7.67578 53.6501 7.67578C54.3404 7.67578 54.9001 7.11612 54.9001 6.42575Z" stroke="#60A5FA" stroke-width="0.339695" stroke-miterlimit="10"/>
<path d="M61.5969 6.42575C61.5969 7.11435 61.0386 7.67578 60.3468 7.67578C59.6582 7.67578 59.0968 7.11745 59.0968 6.42575C59.0968 5.73404 59.6551 5.17571 60.3468 5.17571C61.0386 5.17571 61.5969 5.73404 61.5969 6.42575Z" fill="#60A5FA"/>
<path d="M68.3 6.42575C68.3 5.73537 67.7403 5.17571 67.05 5.17571C66.3596 5.17571 65.7999 5.73537 65.7999 6.42575C65.7999 7.11612 66.3596 7.67578 67.05 7.67578C67.7403 7.67578 68.3 7.11612 68.3 6.42575Z" fill="#60A5FA"/>
<path d="M74.9999 6.42575C74.9999 5.73537 74.4403 5.17571 73.7499 5.17571C73.0595 5.17571 72.4999 5.73537 72.4999 6.42575C72.4999 7.11612 73.0595 7.67578 73.7499 7.67578C74.4403 7.67578 74.9999 7.11612 74.9999 6.42575Z" fill="#60A5FA"/>
<path d="M41.5002 11.5996C41.5002 12.2882 40.9419 12.8496 40.2502 12.8496C39.5616 12.8496 39.0001 12.2913 39.0001 11.5996C39.0001 10.911 39.5585 10.3495 40.2502 10.3495C40.9388 10.3495 41.5002 10.911 41.5002 11.5996Z" fill="#60A5FA"/>
<path d="M48.2001 11.5996C48.2001 10.9092 47.6405 10.3495 46.9501 10.3495C46.2597 10.3495 45.7001 10.9092 45.7001 11.5996C45.7001 12.2899 46.2597 12.8496 46.9501 12.8496C47.6405 12.8496 48.2001 12.2899 48.2001 11.5996Z" fill="#60A5FA"/>
<path d="M54.9002 11.5996C54.9002 10.9092 54.3406 10.3495 53.6502 10.3495C52.9598 10.3495 52.4001 10.9092 52.4001 11.5996C52.4001 12.2899 52.9598 12.8496 53.6502 12.8496C54.3406 12.8496 54.9002 12.2899 54.9002 11.5996Z" fill="#60A5FA"/>
<path d="M61.5969 11.5996C61.5969 12.2882 61.0386 12.8496 60.3468 12.8496C59.6582 12.8496 59.0968 12.2913 59.0968 11.5996C59.0968 10.911 59.6551 10.3495 60.3468 10.3495C61.0386 10.3495 61.5969 10.911 61.5969 11.5996Z" fill="#60A5FA"/>
<path d="M68.3 11.5996C68.3 10.9092 67.7403 10.3495 67.05 10.3495C66.3596 10.3495 65.7999 10.9092 65.7999 11.5996C65.7999 12.2899 66.3596 12.8496 67.05 12.8496C67.7403 12.8496 68.3 12.2899 68.3 11.5996Z" fill="#60A5FA"/>
<path d="M74.9999 11.5996C74.9999 10.9092 74.4403 10.3495 73.7499 10.3495C73.0595 10.3495 72.4999 10.9092 72.4999 11.5996C72.4999 12.2899 73.0595 12.8496 73.7499 12.8496C74.4403 12.8496 74.9999 12.2899 74.9999 11.5996Z" fill="#60A5FA"/>
<path d="M1.73013 42.6367C1.73013 43.2318 1.24757 43.7169 0.649938 43.7169C0.0520347 43.7169 -0.43025 43.2346 -0.43025 42.6367C-0.43025 42.0416 0.0523089 41.5565 0.649938 41.5565C1.24784 41.5565 1.73013 42.0388 1.73013 42.6367Z" fill="#3B82F6" stroke="#8B5CF6" stroke-width="0.339695"/>
<path d="M8.42703 42.6367C8.42703 43.2318 7.94447 43.7169 7.34684 43.7169C6.74893 43.7169 6.26665 43.2346 6.26665 42.6367C6.26665 42.0416 6.74921 41.5565 7.34684 41.5565C7.94474 41.5565 8.42703 42.0388 8.42703 42.6367Z" fill="#E5E7EB" stroke="#8B5CF6" stroke-width="0.339695"/>
<path d="M15.1269 42.6367C15.1269 43.2318 14.6443 43.7169 14.0467 43.7169C13.4516 43.7169 12.9665 43.2343 12.9665 42.6367C12.9665 42.0416 13.449 41.5565 14.0467 41.5565C14.6446 41.5565 15.1269 42.0388 15.1269 42.6367Z" fill="#3B82F6" stroke="#8B5CF6" stroke-width="0.339695"/>
<path d="M21.8268 42.6367C21.8268 43.2318 21.3442 43.7169 20.7466 43.7169C20.1487 43.7169 19.6664 43.2346 19.6664 42.6367C19.6664 42.0416 20.149 41.5565 20.7466 41.5565C21.3445 41.5565 21.8268 42.0388 21.8268 42.6367Z" fill="#3B82F6" stroke="#8B5CF6" stroke-width="0.339695"/>
<path d="M28.5268 42.6367C28.5268 43.2318 28.0442 43.7169 27.4466 43.7169C26.8487 43.7169 26.3664 43.2346 26.3664 42.6367C26.3664 42.0416 26.8489 41.5565 27.4466 41.5565C28.0445 41.5565 28.5268 42.0388 28.5268 42.6367Z" fill="#E5E7EB" stroke="#8B5CF6" stroke-width="0.339695"/>
<path d="M0.649938 46.7303C1.24651 46.7303 1.73013 47.2139 1.73013 47.8105C1.73013 48.4071 1.24651 48.8907 0.649938 48.8907C0.0533662 48.8907 -0.43025 48.4071 -0.43025 47.8105C-0.43025 47.2139 0.0533661 46.7303 0.649938 46.7303Z" fill="#3B82F6" stroke="#8B5CF6" stroke-width="0.339695"/>
<path d="M7.34977 46.7303C7.94634 46.7303 8.42996 47.2139 8.42996 47.8105C8.42996 48.4071 7.94634 48.8907 7.34977 48.8907C6.7532 48.8907 6.26958 48.4071 6.26958 47.8105C6.26958 47.2139 6.7532 46.7303 7.34977 46.7303Z" fill="#3B82F6" stroke="#8B5CF6" stroke-width="0.339695"/>
<path d="M15.1269 47.8105C15.1269 48.4056 14.6443 48.8907 14.0467 48.8907C13.4516 48.8907 12.9665 48.4081 12.9665 47.8105C12.9665 47.2154 13.449 46.7303 14.0467 46.7303C14.6443 46.7303 15.1269 47.2154 15.1269 47.8105Z" fill="#3B82F6" stroke="#8B5CF6" stroke-width="0.339695"/>
<path d="M21.9998 47.8105C21.9998 47.1201 21.4402 46.5605 20.7498 46.5605C20.0594 46.5605 19.4998 47.1201 19.4998 47.8105C19.4998 48.5009 20.0594 49.0605 20.7498 49.0605C21.4402 49.0605 21.9998 48.5009 21.9998 47.8105Z" stroke="#8B5CF6" stroke-width="0.339695" stroke-miterlimit="10"/>
<path d="M27.4497 46.7303C28.0463 46.7303 28.5299 47.2139 28.5299 47.8105C28.5299 48.4071 28.0463 48.8907 27.4497 48.8907C26.8532 48.8907 26.3696 48.4071 26.3696 47.8105C26.3696 47.2139 26.8532 46.7303 27.4497 46.7303Z" fill="#3B82F6" stroke="#8B5CF6" stroke-width="0.339695"/>
<path d="M0.649938 51.9081C1.24651 51.9081 1.73013 52.3917 1.73013 52.9882C1.73013 53.5848 1.24651 54.0684 0.649938 54.0684C0.0533662 54.0684 -0.43025 53.5848 -0.43025 52.9882C-0.43025 52.3917 0.0533661 51.9081 0.649938 51.9081Z" fill="#3B82F6" stroke="#8B5CF6" stroke-width="0.339695"/>
<path d="M7.34977 51.9081C7.94634 51.9081 8.42996 52.3917 8.42996 52.9882C8.42996 53.5848 7.94634 54.0684 7.34977 54.0684C6.7532 54.0684 6.26958 53.5848 6.26958 52.9882C6.26958 52.3917 6.7532 51.9081 7.34977 51.9081Z" fill="#3B82F6" stroke="#8B5CF6" stroke-width="0.339695"/>
<path d="M15.1269 52.9882C15.1269 53.5833 14.6443 54.0684 14.0467 54.0684C13.4516 54.0684 12.9665 53.5859 12.9665 52.9882C12.9665 52.3903 13.4488 51.9081 14.0467 51.9081C14.6446 51.9081 15.1269 52.3903 15.1269 52.9882Z" fill="#E5E7EB" stroke="#8B5CF6" stroke-width="0.339695"/>
<path d="M20.7498 51.9081C21.3464 51.9081 21.83 52.3917 21.83 52.9882C21.83 53.5848 21.3464 54.0684 20.7498 54.0684C20.1532 54.0684 19.6696 53.5848 19.6696 52.9882C19.6696 52.3917 20.1532 51.9081 20.7498 51.9081Z" fill="#3B82F6" stroke="#8B5CF6" stroke-width="0.339695"/>
<path d="M27.4497 51.9081C28.0463 51.9081 28.5299 52.3917 28.5299 52.9882C28.5299 53.5848 28.0463 54.0684 27.4497 54.0684C26.8532 54.0684 26.3696 53.5848 26.3696 52.9882C26.3696 52.3917 26.8532 51.9081 27.4497 51.9081Z" fill="#3B82F6" stroke="#8B5CF6" stroke-width="0.339695"/>
<path d="M0.649938 57.0838C1.24651 57.0838 1.73013 57.5675 1.73013 58.164C1.73013 58.7606 1.24651 59.2442 0.649938 59.2442C0.0533662 59.2442 -0.43025 58.7606 -0.43025 58.164C-0.43025 57.5675 0.0533661 57.0838 0.649938 57.0838Z" fill="#3B82F6" stroke="#8B5CF6" stroke-width="0.339695"/>
<path d="M8.5998 58.164C8.5998 57.4737 8.04014 56.914 7.34977 56.914C6.65939 56.914 6.09973 57.4737 6.09973 58.164C6.09973 58.8544 6.65939 59.4141 7.34977 59.4141C8.04014 59.4141 8.5998 58.8544 8.5998 58.164Z" stroke="#8B5CF6" stroke-width="0.339695" stroke-miterlimit="10"/>
<path d="M15.1269 58.164C15.1269 58.7591 14.6443 59.2442 14.0467 59.2442C13.4516 59.2442 12.9665 58.7617 12.9665 58.164C12.9665 57.5661 13.4488 57.0838 14.0467 57.0838C14.6446 57.0838 15.1269 57.5661 15.1269 58.164Z" fill="#3B82F6" stroke="#8B5CF6" stroke-width="0.339695"/>
<path d="M20.7498 57.0838C21.3464 57.0838 21.83 57.5675 21.83 58.164C21.83 58.7606 21.3464 59.2442 20.7498 59.2442C20.1532 59.2442 19.6696 58.7606 19.6696 58.164C19.6696 57.5675 20.1532 57.0838 20.7498 57.0838Z" fill="#3B82F6" stroke="#8B5CF6" stroke-width="0.339695"/>
<path d="M27.4497 57.0838C28.0463 57.0838 28.5299 57.5675 28.5299 58.164C28.5299 58.7606 28.0463 59.2442 27.4497 59.2442C26.8532 59.2442 26.3696 58.7606 26.3696 58.164C26.3696 57.5675 26.8532 57.0838 27.4497 57.0838Z" fill="#3B82F6" stroke="#8B5CF6" stroke-width="0.339695"/>
<path d="M0.649938 62.2577C1.24651 62.2577 1.73013 62.7413 1.73013 63.3379C1.73013 63.9344 1.24651 64.418 0.649938 64.418C0.0533662 64.418 -0.43025 63.9344 -0.43025 63.3379C-0.43025 62.7413 0.0533661 62.2577 0.649938 62.2577Z" fill="#3B82F6" stroke="#8B5CF6" stroke-width="0.339695"/>
<path d="M7.34989 62.2577C7.94646 62.2577 8.43008 62.7413 8.43008 63.3379C8.43008 63.9344 7.94646 64.418 7.34989 64.418C6.75332 64.418 6.2697 63.9344 6.2697 63.3379C6.2697 62.7413 6.75332 62.2577 7.34989 62.2577Z" fill="#3B82F6" stroke="#8B5CF6" stroke-width="0.339695"/>
<path d="M15.127 63.3379C15.127 63.9329 14.6444 64.418 14.0468 64.418C13.4517 64.418 12.9666 63.9355 12.9666 63.3379C12.9666 62.7428 13.4492 62.2577 14.0468 62.2577C14.6444 62.2577 15.127 62.7428 15.127 63.3379Z" fill="#3B82F6" stroke="#8B5CF6" stroke-width="0.339695"/>
<path d="M20.7498 62.2577C21.3464 62.2577 21.83 62.7413 21.83 63.3379C21.83 63.9344 21.3464 64.418 20.7498 64.418C20.1532 64.418 19.6696 63.9344 19.6696 63.3379C19.6696 62.7413 20.1532 62.2577 20.7498 62.2577Z" fill="#3B82F6" stroke="#8B5CF6" stroke-width="0.339695"/>
<path d="M27.4497 62.2577C28.0463 62.2577 28.5299 62.7413 28.5299 63.3379C28.5299 63.9344 28.0463 64.418 27.4497 64.418C26.8532 64.418 26.3696 63.9344 26.3696 63.3379C26.3696 62.7413 26.8532 62.2577 27.4497 62.2577Z" fill="#3B82F6" stroke="#8B5CF6" stroke-width="0.339695"/>
<path d="M26.2753 21.9433C26.2753 21.2529 26.835 20.6933 27.5254 20.6933C28.2157 20.6933 28.7754 21.2529 28.7754 21.9433C28.7754 22.6337 28.2157 23.1934 27.5254 23.1934C26.835 23.1934 26.2753 22.6337 26.2753 21.9433Z" fill="#8B5CF6"/>
<path d="M26.2753 27.1211C26.2753 26.4307 26.835 25.871 27.5254 25.871C28.2157 25.871 28.7754 26.4307 28.7754 27.1211C28.7754 27.8114 28.2157 28.3711 27.5254 28.3711C26.835 28.3711 26.2753 27.8114 26.2753 27.1211Z" fill="#8B5CF6"/>
<path d="M19.5754 27.1211C19.5754 27.8097 20.1337 28.3711 20.8254 28.3711C21.514 28.3711 22.0754 27.8128 22.0754 27.1211C22.0754 26.4294 21.5171 25.871 20.8254 25.871C20.1368 25.871 19.5754 26.4294 19.5754 27.1211Z" fill="#8B5CF6"/>
<path d="M26.2753 32.2968C26.2753 31.6065 26.835 31.0468 27.5254 31.0468C28.2157 31.0468 28.7754 31.6065 28.7754 32.2968C28.7754 32.9872 28.2157 33.5469 27.5254 33.5469C26.835 33.5469 26.2753 32.9872 26.2753 32.2968Z" fill="#8B5CF6"/>
<path d="M19.5754 32.2968C19.5754 32.9854 20.1337 33.5469 20.8254 33.5469C21.514 33.5469 22.0754 32.9885 22.0754 32.2968C22.0754 31.6051 21.5171 31.0468 20.8254 31.0468C20.1368 31.0468 19.5754 31.6051 19.5754 32.2968Z" fill="#E5E7EB"/>
<path d="M12.8755 32.2968C12.8755 31.6065 13.4352 31.0468 14.1256 31.0468C14.816 31.0468 15.3756 31.6065 15.3756 32.2968C15.3756 32.9872 14.816 33.5469 14.1256 33.5469C13.4352 33.5469 12.8755 32.9872 12.8755 32.2968Z" fill="#8B5CF6"/>
<path d="M26.2753 37.4707C26.2753 36.7803 26.835 36.2206 27.5254 36.2206C28.2157 36.2206 28.7754 36.7803 28.7754 37.4707C28.7754 38.161 28.2157 38.7207 27.5254 38.7207C26.835 38.7207 26.2753 38.161 26.2753 37.4707Z" stroke="#8B5CF6" stroke-width="0.339695" stroke-miterlimit="10"/>
<path d="M19.5754 37.4707C19.5754 38.1593 20.1337 38.7207 20.8254 38.7207C21.514 38.7207 22.0754 38.1624 22.0754 37.4707C22.0754 36.7821 21.5171 36.2206 20.8254 36.2206C20.1368 36.2206 19.5754 36.7821 19.5754 37.4707Z" fill="#8B5CF6"/>
<path d="M12.8755 37.4707C12.8755 36.7803 13.4352 36.2206 14.1256 36.2206C14.816 36.2206 15.3756 36.7803 15.3756 37.4707C15.3756 38.161 14.816 38.7207 14.1256 38.7207C13.4352 38.7207 12.8755 38.161 12.8755 37.4707Z" fill="#8B5CF6"/>
<path d="M6.17559 37.4707C6.17559 36.7803 6.73525 36.2206 7.42562 36.2206C8.116 36.2206 8.67566 36.7803 8.67566 37.4707C8.67566 38.161 8.116 38.7207 7.42562 38.7207C6.73525 38.7207 6.17559 38.161 6.17559 37.4707Z" fill="#8B5CF6"/>
<path d="M33.5503 46.7303C34.1469 46.7303 34.6305 47.2139 34.6305 47.8105C34.6305 48.4071 34.1469 48.8907 33.5503 48.8907C32.9538 48.8907 32.4701 48.4071 32.4701 47.8105C32.4701 47.2139 32.9538 46.7303 33.5503 46.7303Z" fill="#60A5FA" stroke="#8B5CF6" stroke-width="0.339695"/>
<path d="M33.5503 51.9081C34.1469 51.9081 34.6305 52.3917 34.6305 52.9882C34.6305 53.5848 34.1469 54.0684 33.5503 54.0684C32.9538 54.0684 32.4701 53.5848 32.4701 52.9882C32.4701 52.3917 32.9538 51.9081 33.5503 51.9081Z" fill="#60A5FA" stroke="#8B5CF6" stroke-width="0.339695"/>
<path d="M41.3305 52.9882C41.3305 53.5833 40.8479 54.0684 40.2503 54.0684C39.6552 54.0684 39.1701 53.5859 39.1701 52.9882C39.1701 52.3903 39.6524 51.9081 40.2503 51.9081C40.8454 51.9081 41.3305 52.3906 41.3305 52.9882Z" fill="#60A5FA" stroke="#8B5CF6" stroke-width="0.339695"/>
<path d="M33.5503 57.0838C34.1469 57.0838 34.6305 57.5675 34.6305 58.164C34.6305 58.7606 34.1469 59.2442 33.5503 59.2442C32.9538 59.2442 32.4701 58.7606 32.4701 58.164C32.4701 57.5675 32.9538 57.0838 33.5503 57.0838Z" fill="#60A5FA" stroke="#8B5CF6" stroke-width="0.339695"/>
<path d="M41.3305 58.164C41.3305 58.7591 40.8479 59.2442 40.2503 59.2442C39.6552 59.2442 39.1701 58.7617 39.1701 58.164C39.1701 57.5661 39.6524 57.0838 40.2503 57.0838C40.8454 57.0838 41.3305 57.5664 41.3305 58.164Z" fill="#E5E7EB" stroke="#8B5CF6" stroke-width="0.339695"/>
<path d="M46.9501 57.0838C47.5467 57.0838 48.0303 57.5675 48.0303 58.164C48.0303 58.7606 47.5467 59.2442 46.9501 59.2442C46.3535 59.2442 45.8699 58.7606 45.8699 58.164C45.8699 57.5675 46.3535 57.0838 46.9501 57.0838Z" fill="#60A5FA" stroke="#8B5CF6" stroke-width="0.339695"/>
<path d="M34.8004 63.3379C34.8004 62.6475 34.2407 62.0878 33.5503 62.0878C32.86 62.0878 32.3003 62.6475 32.3003 63.3379C32.3003 64.0282 32.86 64.5879 33.5503 64.5879C34.2407 64.5879 34.8004 64.0282 34.8004 63.3379Z" stroke="#8B5CF6" stroke-width="0.339695" stroke-miterlimit="10"/>
<path d="M41.3305 63.3379C41.3305 63.9329 40.8479 64.418 40.2503 64.418C39.6552 64.418 39.1701 63.9355 39.1701 63.3379C39.1701 62.7428 39.6527 62.2577 40.2503 62.2577C40.8451 62.2577 41.3305 62.7431 41.3305 63.3379Z" fill="#60A5FA" stroke="#8B5CF6" stroke-width="0.339695"/>
<path d="M46.9501 62.2577C47.5467 62.2577 48.0303 62.7413 48.0303 63.3379C48.0303 63.9344 47.5467 64.418 46.9501 64.418C46.3535 64.418 45.8699 63.9344 45.8699 63.3379C45.8699 62.7413 46.3535 62.2577 46.9501 62.2577Z" fill="#60A5FA" stroke="#8B5CF6" stroke-width="0.339695"/>
<path d="M53.6501 62.2577C54.2466 62.2577 54.7302 62.7413 54.7302 63.3379C54.7302 63.9344 54.2466 64.418 53.6501 64.418C53.0535 64.418 52.5699 63.9344 52.5699 63.3379C52.5699 62.7413 53.0535 62.2577 53.6501 62.2577Z" fill="#60A5FA" stroke="#8B5CF6" stroke-width="0.339695"/>
<path d="M34.6305 42.6347C34.6305 43.2298 34.148 43.7149 33.5503 43.7149C32.9524 43.7149 32.4701 43.2326 32.4701 42.6347C32.4701 42.0397 32.9527 41.5545 33.5503 41.5545C34.1482 41.5545 34.6305 42.0368 34.6305 42.6347Z" fill="#8B5CF6" stroke="#8B5CF6" stroke-width="0.339695"/>
<path d="M41.3305 42.6347C41.3305 43.2298 40.8479 43.7149 40.2503 43.7149C39.6552 43.7149 39.1701 43.2324 39.1701 42.6347C39.1701 42.0397 39.6527 41.5545 40.2503 41.5545C40.8454 41.5545 41.3305 42.0371 41.3305 42.6347Z" fill="#8B5CF6" stroke="#8B5CF6" stroke-width="0.339695"/>
<path d="M48.0304 42.6347C48.0304 43.2298 47.5479 43.7149 46.9502 43.7149C46.3523 43.7149 45.87 43.2326 45.87 42.6347C45.87 42.0397 46.3526 41.5545 46.9502 41.5545C47.5481 41.5545 48.0304 42.0368 48.0304 42.6347Z" fill="#8B5CF6" stroke="#8B5CF6" stroke-width="0.339695"/>
<path d="M54.7273 42.6347C54.7273 43.2298 54.2448 43.7149 53.6471 43.7149C53.0492 43.7149 52.5669 43.2326 52.5669 42.6347C52.5669 42.0397 53.0495 41.5545 53.6471 41.5545C54.245 41.5545 54.7273 42.0368 54.7273 42.6347Z" fill="#E5E7EB" stroke="#8B5CF6" stroke-width="0.339695"/>
<path d="M61.4273 42.6347C61.4273 43.2298 60.9447 43.7149 60.3471 43.7149C59.752 43.7149 59.2669 43.2324 59.2669 42.6347C59.2669 42.0397 59.7495 41.5545 60.3471 41.5545C60.945 41.5545 61.4273 42.0368 61.4273 42.6347Z" fill="#8B5CF6" stroke="#8B5CF6" stroke-width="0.339695"/>
<path d="M68.1272 42.6347C68.1272 43.2298 67.6447 43.7149 67.047 43.7149C66.4491 43.7149 65.9668 43.2326 65.9668 42.6347C65.9668 42.0397 66.4494 41.5545 67.047 41.5545C67.6449 41.5545 68.1272 42.0368 68.1272 42.6347Z" fill="#8B5CF6" stroke="#8B5CF6" stroke-width="0.339695"/>
<path d="M74.827 42.6347C74.827 43.2298 74.3445 43.7149 73.7469 43.7149C73.149 43.7149 72.6667 43.2326 72.6667 42.6347C72.6667 42.0397 73.1492 41.5545 73.7469 41.5545C74.3448 41.5545 74.827 42.0368 74.827 42.6347Z" fill="#E5E7EB" stroke="#8B5CF6" stroke-width="0.339695"/>
<path d="M41.5003 47.8086C41.5003 48.4972 40.942 49.0586 40.2503 49.0586C39.5617 49.0586 39.0002 48.5003 39.0002 47.8086C39.0002 47.12 39.5586 46.5585 40.2503 46.5585C40.9389 46.5585 41.5003 47.12 41.5003 47.8086Z" stroke="#8B5CF6" stroke-width="0.339695" stroke-miterlimit="10"/>
<path d="M46.9502 46.7284C47.5468 46.7284 48.0304 47.212 48.0304 47.8086C48.0304 48.4051 47.5468 48.8887 46.9502 48.8887C46.3537 48.8887 45.87 48.4051 45.87 47.8086C45.87 47.212 46.3537 46.7284 46.9502 46.7284Z" fill="#8B5CF6" stroke="#8B5CF6" stroke-width="0.339695"/>
<path d="M53.6501 46.7284C54.2466 46.7284 54.7302 47.212 54.7302 47.8086C54.7302 48.4051 54.2466 48.8887 53.6501 48.8887C53.0535 48.8887 52.5699 48.4051 52.5699 47.8086C52.5699 47.212 53.0535 46.7284 53.6501 46.7284Z" fill="#8B5CF6" stroke="#8B5CF6" stroke-width="0.339695"/>
<path d="M61.4273 47.8086C61.4273 48.4036 60.9447 48.8887 60.3471 48.8887C59.752 48.8887 59.2669 48.4062 59.2669 47.8086C59.2669 47.2135 59.7495 46.7284 60.3471 46.7284C60.9447 46.7284 61.4273 47.2135 61.4273 47.8086Z" fill="#8B5CF6" stroke="#8B5CF6" stroke-width="0.339695"/>
<path d="M68.3001 47.8086C68.3001 47.1182 67.7405 46.5585 67.0501 46.5585C66.3597 46.5585 65.8 47.1182 65.8 47.8086C65.8 48.4989 66.3597 49.0586 67.0501 49.0586C67.7405 49.0586 68.3001 48.4989 68.3001 47.8086Z" stroke="#8B5CF6" stroke-width="0.339695" stroke-miterlimit="10"/>
<path d="M73.75 46.7284C74.3466 46.7284 74.8302 47.212 74.8302 47.8086C74.8302 48.4051 74.3466 48.8887 73.75 48.8887C73.1535 48.8887 72.6698 48.4051 72.6698 47.8086C72.6698 47.212 73.1535 46.7284 73.75 46.7284Z" fill="#8B5CF6" stroke="#8B5CF6" stroke-width="0.339695"/>
<path d="M46.9502 51.9042C47.5468 51.9042 48.0304 52.3878 48.0304 52.9843C48.0304 53.5809 47.5468 54.0645 46.9502 54.0645C46.3537 54.0645 45.87 53.5809 45.87 52.9843C45.87 52.3878 46.3537 51.9042 46.9502 51.9042Z" fill="#8B5CF6" stroke="#8B5CF6" stroke-width="0.339695"/>
<path d="M53.6501 51.9042C54.2466 51.9042 54.7302 52.3878 54.7302 52.9843C54.7302 53.5809 54.2466 54.0645 53.6501 54.0645C53.0535 54.0645 52.5699 53.5809 52.5699 52.9843C52.5699 52.3878 53.0535 51.9042 53.6501 51.9042Z" fill="#8B5CF6" stroke="#8B5CF6" stroke-width="0.339695"/>
<path d="M61.4273 52.9843C61.4273 53.5794 60.9447 54.0645 60.3471 54.0645C59.752 54.0645 59.2669 53.582 59.2669 52.9843C59.2669 52.3864 59.7492 51.9042 60.3471 51.9042C60.945 51.9042 61.4273 52.3864 61.4273 52.9843Z" fill="#E5E7EB" stroke="#8B5CF6" stroke-width="0.339695"/>
<path d="M67.0501 51.9042C67.6467 51.9042 68.1303 52.3878 68.1303 52.9843C68.1303 53.5809 67.6467 54.0645 67.0501 54.0645C66.4535 54.0645 65.9699 53.5809 65.9699 52.9843C65.9699 52.3878 66.4535 51.9042 67.0501 51.9042Z" fill="#8B5CF6" stroke="#8B5CF6" stroke-width="0.339695"/>
<path d="M73.75 51.9042C74.3466 51.9042 74.8302 52.3878 74.8302 52.9843C74.8302 53.5809 74.3466 54.0645 73.75 54.0645C73.1535 54.0645 72.6698 53.5809 72.6698 52.9843C72.6698 52.3878 73.1535 51.9042 73.75 51.9042Z" fill="#8B5CF6" stroke="#8B5CF6" stroke-width="0.339695"/>
<path d="M54.9001 58.1621C54.9001 57.4717 54.3404 56.912 53.6501 56.912C52.9597 56.912 52.4 57.4717 52.4 58.1621C52.4 58.8524 52.9597 59.4121 53.6501 59.4121C54.3404 59.4121 54.9001 58.8524 54.9001 58.1621Z" stroke="#8B5CF6" stroke-width="0.339695" stroke-miterlimit="10"/>
<path d="M61.4273 58.1621C61.4273 58.7571 60.9447 59.2423 60.3471 59.2423C59.752 59.2423 59.2669 58.7597 59.2669 58.1621C59.2669 57.5642 59.7492 57.0819 60.3471 57.0819C60.945 57.0819 61.4273 57.5642 61.4273 58.1621Z" fill="#8B5CF6" stroke="#8B5CF6" stroke-width="0.339695"/>
<path d="M67.0501 57.0819C67.6467 57.0819 68.1303 57.5655 68.1303 58.1621C68.1303 58.7586 67.6467 59.2423 67.0501 59.2423C66.4535 59.2423 65.9699 58.7586 65.9699 58.1621C65.9699 57.5655 66.4535 57.0819 67.0501 57.0819Z" fill="#8B5CF6" stroke="#8B5CF6" stroke-width="0.339695"/>
<path d="M73.75 57.0819C74.3466 57.0819 74.8302 57.5655 74.8302 58.1621C74.8302 58.7586 74.3466 59.2423 73.75 59.2423C73.1535 59.2423 72.6698 58.7586 72.6698 58.1621C72.6698 57.5655 73.1535 57.0819 73.75 57.0819Z" fill="#8B5CF6" stroke="#8B5CF6" stroke-width="0.339695"/>
<path d="M61.4272 63.3359C61.4272 63.931 60.9446 64.4161 60.347 64.4161C59.7519 64.4161 59.2668 63.9335 59.2668 63.3359C59.2668 62.7408 59.7493 62.2557 60.347 62.2557C60.9446 62.2557 61.4272 62.7408 61.4272 63.3359Z" fill="#8B5CF6" stroke="#8B5CF6" stroke-width="0.339695"/>
<path d="M67.05 62.2557C67.6465 62.2557 68.1302 62.7393 68.1302 63.3359C68.1302 63.9325 67.6465 64.4161 67.05 64.4161C66.4534 64.4161 65.9698 63.9325 65.9698 63.3359C65.9698 62.7393 66.4534 62.2557 67.05 62.2557Z" fill="#8B5CF6" stroke="#8B5CF6" stroke-width="0.339695"/>
<path d="M73.75 62.2557C74.3466 62.2557 74.8302 62.7393 74.8302 63.3359C74.8302 63.9325 74.3466 64.4161 73.75 64.4161C73.1535 64.4161 72.6698 63.9325 72.6698 63.3359C72.6698 62.7393 73.1535 62.2557 73.75 62.2557Z" fill="#8B5CF6" stroke="#8B5CF6" stroke-width="0.339695"/>
</svg>
