<svg width="151" height="152" viewBox="0 0 151 152" fill="none" xmlns="http://www.w3.org/2000/svg">
<path d="M74.837 1C116.113 1.22703 149.387 34.8835 149.159 76.1596C148.932 117.436 115.276 150.709 73.9999 150.482" stroke="white" stroke-width="2" stroke-miterlimit="10"/>
<path d="M73.9998 131.271C104.733 131.441 129.777 106.667 129.947 75.9476C130.118 45.214 105.343 20.1703 74.6241 20L73.9998 131.271Z" fill="#818CF8"/>
<path d="M75.3236 150.483C34.0475 150.256 0.774129 116.6 1.00115 75.3236C1.22818 34.0475 34.8847 0.774118 76.1608 1.00114" stroke="white" stroke-width="2" stroke-miterlimit="10"/>
<path d="M76.0471 20.0993C45.3135 19.929 20.2698 44.7032 20.0995 75.4226C19.9292 106.156 44.7034 131.2 75.4228 131.37L76.0471 20.0993Z" fill="#818CF8"/>
</svg>
