<svg width="79" height="45" viewBox="0 0 79 45" fill="none" xmlns="http://www.w3.org/2000/svg">
<path d="M73.8701 2.15002C73.8701 0.960024 74.8401 0 76.0201 0C77.2101 0 78.1701 0.970024 78.1701 2.15002C78.1701 3.33002 77.2001 4.29999 76.0201 4.29999C74.8301 4.29999 73.8701 3.34002 73.8701 2.15002Z" fill="white"/>
<path d="M55.4004 2.15002C55.4004 0.960024 56.3704 0 57.5504 0C58.7404 0 59.7004 0.970024 59.7004 2.15002C59.7004 3.33002 58.7304 4.29999 57.5504 4.29999C56.3704 4.29999 55.4004 3.34002 55.4004 2.15002Z" fill="white"/>
<path d="M55.4004 22.4C55.4004 21.21 56.3704 20.25 57.5504 20.25C58.7404 20.25 59.7004 21.22 59.7004 22.4C59.7004 23.59 58.7304 24.55 57.5504 24.55C56.3704 24.56 55.4004 23.59 55.4004 22.4Z" fill="white"/>
<path d="M36.9307 2.15002C36.9307 0.960024 37.9007 0 39.0807 0C40.2707 0 41.2307 0.970024 41.2307 2.15002C41.2307 3.33002 40.2607 4.29999 39.0807 4.29999C37.9007 4.29999 36.9307 3.34002 36.9307 2.15002Z" fill="white"/>
<path d="M36.9307 22.4C36.9307 21.21 37.9007 20.25 39.0807 20.25C40.2707 20.25 41.2307 21.22 41.2307 22.4C41.2307 23.59 40.2607 24.55 39.0807 24.55C37.9007 24.56 36.9307 23.59 36.9307 22.4Z" fill="white"/>
<path d="M36.9307 42.65C36.9307 41.46 37.9007 40.5 39.0807 40.5C40.2707 40.5 41.2307 41.47 41.2307 42.65C41.2307 43.84 40.2607 44.8 39.0807 44.8C37.9007 44.81 36.9307 43.84 36.9307 42.65Z" fill="white"/>
<path d="M18.4698 2.15002C18.4698 0.960024 19.4398 0 20.6198 0C21.8098 0 22.7697 0.970024 22.7697 2.15002C22.7697 3.33002 21.7998 4.29999 20.6198 4.29999C19.4298 4.29999 18.4698 3.34002 18.4698 2.15002Z" fill="white"/>
<path d="M18.4698 22.4C18.4698 21.21 19.4398 20.25 20.6198 20.25C21.8098 20.25 22.7697 21.22 22.7697 22.4C22.7697 23.59 21.7998 24.55 20.6198 24.55C19.4298 24.56 18.4698 23.59 18.4698 22.4Z" fill="white"/>
<path d="M0 2.15002C0 3.33744 0.962582 4.29999 2.14999 4.29999C3.33741 4.29999 4.30002 3.33744 4.30002 2.15002C4.30002 0.962612 3.33741 0 2.14999 0C0.962582 0 0 0.962612 0 2.15002Z" fill="white"/>
</svg>
