<svg width="166" height="146" viewBox="0 0 166 146" fill="none" xmlns="http://www.w3.org/2000/svg">
<ellipse cx="94.5372" cy="123.976" rx="6.71674" ry="8.08285" fill="#A5B4FC"/>
<path d="M103.189 80.5996C103.189 95.3019 100.935 108.607 97.2948 118.233C95.4744 123.046 93.3095 126.933 90.9114 129.615C88.5132 132.297 85.8912 133.764 83.1529 133.764C80.4146 133.764 77.7926 132.297 75.3944 129.615C72.9963 126.933 70.8314 123.046 69.011 118.233C65.3706 108.607 63.1165 95.3019 63.1165 80.5996C63.1165 65.8972 65.3706 52.5919 69.011 42.9662C70.8314 38.153 72.9963 34.2657 75.3944 31.5838C77.7926 28.9018 80.4146 27.4349 83.1529 27.4349C85.8912 27.4349 88.5132 28.9018 90.9114 31.5838C93.3095 34.2657 95.4744 38.153 97.2948 42.9662C100.935 52.5919 103.189 65.8972 103.189 80.5996Z" fill="#F3F4F6" stroke="black" stroke-width="0.227686"/>
<path d="M66.1536 50.868C64.2927 51.7732 62.8743 54.6419 62.7723 58.0801C62.6567 61.9781 64.2733 65.2454 66.4714 65.7795" fill="#9CA3AF"/>
<path d="M66.1536 50.868C64.2927 51.7732 62.8743 54.6419 62.7723 58.0801C62.6567 61.9781 64.2733 65.2454 66.4714 65.7795" stroke="#4D4D4D" stroke-width="0.178481" stroke-miterlimit="10"/>
<path d="M146.159 126.16C157.117 115.202 157.117 97.436 146.159 86.4781C135.201 75.5202 117.435 75.5202 106.477 86.4781C95.5191 97.436 95.5191 115.202 106.477 126.16C117.435 137.118 135.201 137.118 146.159 126.16Z" fill="#059669"/>
<path d="M128.279 108.606C145.282 108.606 159.066 94.8221 159.066 77.819C159.066 60.8158 145.282 47.032 128.279 47.032C111.276 47.032 97.4919 60.8158 97.4919 77.819C97.4919 94.8221 111.276 108.606 128.279 108.606Z" stroke="#C7D2FE" stroke-width="0.713926" stroke-miterlimit="10" stroke-dasharray="4.28 4.28 4.28 4.28 4.28 4.28"/>
<path d="M107.742 127.346L107.876 134.379H85.1143L90.1524 128.94C90.1524 128.94 95.8599 130.934 98.2587 127.874L102.318 131.406L107.742 127.346Z" fill="#818CF8"/>
<path d="M40.7363 138.625C56.2331 138.625 68.7957 126.063 68.7957 110.566C68.7957 95.0692 56.2331 82.5066 40.7363 82.5066C25.2395 82.5066 12.6769 95.0692 12.6769 110.566C12.6769 126.063 25.2395 138.625 40.7363 138.625Z" fill="#059669"/>
<path d="M107.617 55.3317C120.858 55.3317 131.592 44.5977 131.592 31.3566C131.592 18.1156 120.858 7.38159 107.617 7.38159C94.3756 7.38159 83.6416 18.1156 83.6416 31.3566C83.6416 44.5977 94.3756 55.3317 107.617 55.3317Z" fill="#059669"/>
<path d="M139.197 76.5735C140.805 76.1954 141.802 74.5857 141.424 72.978C141.046 71.3704 139.436 70.3736 137.828 70.7517C136.221 71.1298 135.224 72.7395 135.602 74.3471C135.98 75.9548 137.59 76.9515 139.197 76.5735Z" fill="#059669"/>
<path d="M55.6465 27.1864C57.298 27.1864 58.6368 25.8476 58.6368 24.1961C58.6368 22.5446 57.298 21.2058 55.6465 21.2058C53.995 21.2058 52.6562 22.5446 52.6562 24.1961C52.6562 25.8476 53.995 27.1864 55.6465 27.1864Z" fill="#059669"/>
<path d="M77.9168 17.5558C81.1487 14.3238 81.1487 9.08388 77.9168 5.85196C74.6849 2.62005 69.4449 2.62005 66.213 5.85196C62.9811 9.08388 62.9811 14.3238 66.213 17.5558C69.4449 20.7877 74.6849 20.7877 77.9168 17.5558Z" fill="#059669"/>
<path d="M104.458 41.0622C109.562 41.0622 113.699 36.925 113.699 31.8215C113.699 26.718 109.562 22.5808 104.458 22.5808C99.3546 22.5808 95.2174 26.718 95.2174 31.8215C95.2174 36.925 99.3546 41.0622 104.458 41.0622Z" fill="#4D4D4D"/>
<path d="M4.65482 133.866H146.451C147.643 133.866 148.786 134.339 149.629 135.182C150.471 136.025 150.945 137.168 150.945 138.359V138.626H0.161377V138.359C0.161377 137.168 0.634792 136.025 1.47748 135.182C2.32016 134.339 3.46309 133.866 4.65482 133.866V133.866Z" fill="#6B7280"/>
<path d="M96.5581 31.9615C97.3552 31.6711 98.2032 31.5464 99.0503 31.595C99.8973 31.6436 100.725 31.8645 101.484 32.2442C103.59 33.3101 106.377 35.6032 108.634 40.5368C112.85 49.7554 125.142 53.114 129.215 65.048C129.215 65.048 133.954 76.4798 120.854 83.3809C120.854 83.3809 125.856 74.338 119.783 68.2639C119.783 68.2639 126.873 86.569 100.06 86.7724L91.3414 86.0942L90.1113 72.5178C90.1113 72.5178 102.204 68.3717 101.06 55.4907C100.323 47.5207 98.8157 39.6409 96.5581 31.9619V31.9615Z" fill="#4D4D4D"/>
<path d="M65.955 59.1882C65.955 59.1882 65.3125 62.4573 57.862 63.3151C50.4114 64.1729 45.3208 70.6285 49.6083 77.9863C49.6083 77.9863 47.6807 71.5159 54.1103 69.4256C54.1103 69.4256 46.2853 86.6419 69.8677 88.1365L75.5755 86.7907L75.3342 73.874C75.3342 73.874 67.3486 72.5336 65.955 59.1882Z" fill="#4D4D4D"/>
<path d="M98.7494 65.428C98.7494 65.428 92.6055 74.9877 78.3665 74.4274C65.7628 73.9318 66.1921 57.3497 66.1921 57.3497C66.1921 57.3497 65.6916 30.8471 84.0093 30.28" stroke="#4D4D4D" stroke-width="0.178481" stroke-miterlimit="10"/>
<path d="M70.9393 62.7262C70.9393 62.7262 71.8507 66.7459 76.8885 65.7275C78.2757 65.4888 79.5443 64.796 80.495 63.758C81.4458 62.7201 82.0248 61.3957 82.1412 59.9929" stroke="#4D4D4D" stroke-width="0.178481" stroke-miterlimit="10"/>
<path d="M70.475 86.0945C70.475 86.0945 77.6211 89.2029 98.2021 86.0945C98.2021 86.0945 113.28 86.0174 124.643 116.287C124.643 116.287 130.645 132.294 119.926 135.153C109.207 138.011 97.1301 128.864 97.1301 128.864C97.1301 128.864 101.704 125.934 99.4882 120.431C99.4882 120.431 81.6943 116.573 81.9089 127.077H39.2329C39.2329 127.077 39.6752 87.9164 70.475 86.0945Z" fill="#818CF8"/>
<path d="M70.475 86.0945C70.475 86.0945 77.6211 89.2029 98.2021 86.0945C98.2021 86.0945 113.28 86.0174 124.643 116.287C124.643 116.287 130.645 132.294 119.926 135.153C109.207 138.011 97.1301 128.864 97.1301 128.864C97.1301 128.864 101.704 125.934 99.4882 120.431C99.4882 120.431 81.6943 116.573 81.9089 127.077H39.2329C39.2329 127.077 39.6752 87.9164 70.475 86.0945Z" stroke="#4D4D4D" stroke-width="0.178481" stroke-miterlimit="10"/>
<path d="M83.5878 28.9075C83.5878 28.9075 77.6926 47.184 99.881 54.9551C99.881 54.9551 108.135 29.2827 85.7317 26.8175C85.7317 26.8175 73.8335 21.2075 65.151 30.1758C56.4686 39.1442 66.6342 51.2245 66.6342 51.2245C66.6342 51.2245 67.316 45.6609 69.5995 40.9668C72.4531 35.1005 77.6312 29.8785 85.0528 30.3547L83.5878 28.9075Z" fill="#4D4D4D"/>
<path d="M87.5159 90.7039H32.8532C31.2139 90.7039 29.885 92.0327 29.885 93.672V130.898C29.885 132.537 31.2139 133.866 32.8532 133.866H87.5159C89.1552 133.866 90.4841 132.537 90.4841 130.898V93.672C90.4841 92.0327 89.1552 90.7039 87.5159 90.7039Z" fill="#9CA3AF" stroke="#4D4D4D" stroke-width="0.178481" stroke-miterlimit="10"/>
<path d="M100.882 66.4517C104.67 66.4517 107.742 62.8154 107.742 58.3297C107.742 53.8441 104.67 50.2078 100.882 50.2078C97.0929 50.2078 94.0215 53.8441 94.0215 58.3297C94.0215 62.8154 97.0929 66.4517 100.882 66.4517Z" fill="#6B7280" stroke="#4D4D4D" stroke-width="0.178481" stroke-miterlimit="10"/>
<path d="M80.6404 54.8493C80.6404 55.9444 81.3122 56.8322 82.1396 56.8322C82.9671 56.8322 83.6389 55.9444 83.6389 54.8493C83.6389 53.7541 82.9667 52.866 82.1396 52.866C81.3125 52.866 80.6404 53.7537 80.6404 54.8493Z" fill="#4D4D4D"/>
<path d="M69.5706 54.8493C69.5706 55.9444 70.2424 56.8322 71.0698 56.8322C71.8972 56.8322 72.5691 55.9444 72.5691 54.8493C72.5691 53.7541 71.8972 52.866 71.0698 52.866C70.2424 52.866 69.5706 53.7537 69.5706 54.8493Z" fill="#4D4D4D"/>
<path d="M65.6162 47.5917C65.8428 48.7561 67.1179 47.8362 69.3029 47.4107C71.4878 46.9852 73.7556 47.2148 73.529 46.05C73.3023 44.8852 71.3465 44.2862 69.1615 44.7121C66.9765 45.138 65.3902 46.428 65.6162 47.5917Z" fill="#4D4D4D"/>
<path d="M79.3594 45.949C79.2184 47.127 80.7137 46.6423 82.924 46.9068C85.1344 47.1713 87.2226 48.0848 87.3636 46.9068C87.5046 45.7288 85.8286 44.559 83.6155 44.2945C81.4023 44.03 79.5022 44.7711 79.3594 45.949Z" fill="#4D4D4D"/>
<path d="M74.4097 60.1924C74.4097 60.1924 71.9441 59.0501 72.5892 57.6555C73.2342 56.2608 75.5106 54.7255 75.336 50.4734" stroke="#4D4D4D" stroke-width="0.178481" stroke-miterlimit="10"/>
<path d="M74.4733 54.7429C74.4733 53.2926 73.9708 51.8872 73.0511 50.7658C72.1315 49.6445 70.8516 48.8765 69.4294 48.5927C68.0073 48.3089 66.5307 48.5268 65.251 49.2092C63.9714 49.8917 62.9679 50.9965 62.4113 52.3357C61.8547 53.6749 61.7794 55.1656 62.1983 56.554C62.6172 57.9424 63.5044 59.1427 64.7088 59.9506C65.9132 60.7584 67.3603 61.1239 68.8039 60.9848C70.2474 60.8456 71.5981 60.2104 72.626 59.1874" stroke="#4D4D4D" stroke-width="0.713926" stroke-miterlimit="10"/>
<path d="M83.5881 61.0149C87.0514 61.0149 89.8589 58.2074 89.8589 54.7442C89.8589 51.2809 87.0514 48.4734 83.5881 48.4734C80.1249 48.4734 77.3174 51.2809 77.3174 54.7442C77.3174 58.2074 80.1249 61.0149 83.5881 61.0149Z" stroke="#4D4D4D" stroke-width="0.713926" stroke-miterlimit="10"/>
<path d="M74.0988 52.6055C74.0988 52.6055 74.5325 52.1368 77.6063 52.6055" stroke="#4D4D4D" stroke-width="0.713926" stroke-miterlimit="10"/>
<path d="M89.8585 55.3328L94.4251 55.5766" stroke="#4D4D4D" stroke-width="0.713926" stroke-miterlimit="10"/>
<path d="M62.964 114.497C64.4991 112.962 64.4991 110.473 62.964 108.938C61.4289 107.403 58.94 107.403 57.4049 108.938C55.8698 110.473 55.8698 112.962 57.4049 114.497C58.94 116.032 61.4289 116.032 62.964 114.497Z" fill="#4D4D4D"/>
<path d="M93.4189 29.0691C93.4189 29.0691 99.0668 34.4896 99.6658 50.9866L105.195 51.547C105.195 51.547 106.123 36.9944 99.8357 31.5864C99.8354 31.5857 95.7927 28.101 93.4189 29.0691Z" fill="#9CA3AF" stroke="#4D4D4D" stroke-width="0.178481" stroke-miterlimit="10"/>
<path d="M102.597 66.4517C106.385 66.4517 109.457 62.8154 109.457 58.3297C109.457 53.8441 106.385 50.2078 102.597 50.2078C98.8078 50.2078 95.7365 53.8441 95.7365 58.3297C95.7365 62.8154 98.8078 66.4517 102.597 66.4517Z" fill="#9CA3AF" stroke="#4D4D4D" stroke-width="0.178481" stroke-miterlimit="10"/>
<path d="M68.7957 79.8067C70.931 79.2545 73.1286 78.9797 75.3341 78.9893V82.5086C75.3341 82.5086 70.1457 81.6429 68.7957 79.8067Z" fill="#9CA3AF" stroke="#4D4D4D" stroke-width="0.178481" stroke-miterlimit="10"/>
<path d="M100.364 79.8066C100.364 79.8066 93.4596 78.9181 90.1113 78.9892V82.5085C90.1113 82.5085 99.0136 81.6428 100.364 79.8066Z" fill="#9CA3AF" stroke="#4D4D4D" stroke-width="0.178481" stroke-miterlimit="10"/>
<path d="M90.4841 72.4753V83.6997" stroke="#4D4D4D" stroke-width="0.178481" stroke-miterlimit="10"/>
<path d="M75.2977 73.9988L75.3341 83.7005" stroke="#4D4D4D" stroke-width="0.178481" stroke-miterlimit="10"/>
<path d="M69 86.7709C69 86.7709 80.255 92.9345 100.568 86.7709V80C100.568 80 81.8632 85.6811 69 80V86.7709Z" fill="#A5B4FC"/>
<path d="M97.493 128.587C97.493 128.587 94.7162 131.449 90.847 129.162" stroke="#4D4D4D" stroke-width="0.178481" stroke-miterlimit="10"/>
<path d="M99.488 120.432C99.488 120.432 105.981 118.284 115.414 120.432" stroke="#4D4D4D" stroke-width="0.178481" stroke-miterlimit="10"/>
<path d="M107.742 119.477C107.742 119.477 106.806 107.998 102.749 99.9246" stroke="#4D4D4D" stroke-width="0.178481" stroke-miterlimit="10"/>
<path d="M68.7957 86.5743C68.7957 86.5743 80.0507 92.738 100.364 86.5743V79.8035C100.364 79.8035 81.6588 85.4845 68.7957 79.8035V86.5743Z" stroke="#4D4D4D" stroke-width="0.178481" stroke-miterlimit="10"/>
</svg>
